<mxfile host="app.diagrams.net" modified="2024-02-01T18:39:54.179Z" agent="Mozilla/5.0 (Windows NT 10.0; Win64; x64) AppleWebKit/537.36 (KHTML, like Gecko) Chrome/120.0.0.0 Safari/537.36" etag="uMqfSSIJcmYFBUzeuIu2" version="23.1.0" type="device" pages="9">
  <diagram name="Bubblesort" id="HZ0yQaSSm_GFu6ZqShw4">
    <mxGraphModel dx="1290" dy="530" grid="1" gridSize="10" guides="1" tooltips="1" connect="1" arrows="1" fold="1" page="1" pageScale="1" pageWidth="827" pageHeight="1169" math="0" shadow="0">
      <root>
        <mxCell id="V17yTtyNviXaEQIzeuZt-0" />
        <mxCell id="V17yTtyNviXaEQIzeuZt-1" parent="V17yTtyNviXaEQIzeuZt-0" />
        <mxCell id="yxLQfnr6C5toMhqmOMqC-1" style="edgeStyle=orthogonalEdgeStyle;rounded=0;orthogonalLoop=1;jettySize=auto;html=1;exitX=0.5;exitY=1;exitDx=0;exitDy=0;entryX=0.5;entryY=0;entryDx=0;entryDy=0;" parent="V17yTtyNviXaEQIzeuZt-1" source="V17yTtyNviXaEQIzeuZt-2" target="yxLQfnr6C5toMhqmOMqC-0" edge="1">
          <mxGeometry relative="1" as="geometry" />
        </mxCell>
        <mxCell id="V17yTtyNviXaEQIzeuZt-2" value="" style="ellipse;whiteSpace=wrap;html=1;" parent="V17yTtyNviXaEQIzeuZt-1" vertex="1">
          <mxGeometry x="315" y="70" width="125" height="60" as="geometry" />
        </mxCell>
        <mxCell id="V17yTtyNviXaEQIzeuZt-3" value="" style="ellipse;whiteSpace=wrap;html=1;" parent="V17yTtyNviXaEQIzeuZt-1" vertex="1">
          <mxGeometry x="313.75" y="937.5" width="127.5" height="65" as="geometry" />
        </mxCell>
        <mxCell id="yxLQfnr6C5toMhqmOMqC-12" style="edgeStyle=orthogonalEdgeStyle;rounded=0;orthogonalLoop=1;jettySize=auto;html=1;exitX=0.5;exitY=1;exitDx=0;exitDy=0;" parent="V17yTtyNviXaEQIzeuZt-1" source="V17yTtyNviXaEQIzeuZt-4" edge="1">
          <mxGeometry relative="1" as="geometry">
            <mxPoint x="378" y="350" as="targetPoint" />
          </mxGeometry>
        </mxCell>
        <mxCell id="yxLQfnr6C5toMhqmOMqC-25" style="edgeStyle=orthogonalEdgeStyle;rounded=0;orthogonalLoop=1;jettySize=auto;html=1;exitX=1;exitY=0.5;exitDx=0;exitDy=0;entryX=1;entryY=0.5;entryDx=0;entryDy=0;" parent="V17yTtyNviXaEQIzeuZt-1" source="V17yTtyNviXaEQIzeuZt-4" target="V17yTtyNviXaEQIzeuZt-3" edge="1">
          <mxGeometry relative="1" as="geometry">
            <mxPoint x="550" y="770" as="targetPoint" />
            <Array as="points">
              <mxPoint x="580" y="275" />
              <mxPoint x="580" y="970" />
            </Array>
          </mxGeometry>
        </mxCell>
        <mxCell id="V17yTtyNviXaEQIzeuZt-4" value="" style="rhombus;whiteSpace=wrap;html=1;" parent="V17yTtyNviXaEQIzeuZt-1" vertex="1">
          <mxGeometry x="312.5" y="235" width="130" height="80" as="geometry" />
        </mxCell>
        <mxCell id="V17yTtyNviXaEQIzeuZt-13" value="&lt;font style=&quot;font-size: 21px;&quot;&gt;Start&lt;/font&gt;" style="text;html=1;strokeColor=none;fillColor=none;align=center;verticalAlign=middle;whiteSpace=wrap;rounded=0;" parent="V17yTtyNviXaEQIzeuZt-1" vertex="1">
          <mxGeometry x="347.5" y="85" width="60" height="30" as="geometry" />
        </mxCell>
        <mxCell id="V17yTtyNviXaEQIzeuZt-14" value="&lt;font style=&quot;font-size: 21px;&quot;&gt;Stop&lt;/font&gt;" style="text;html=1;strokeColor=none;fillColor=none;align=center;verticalAlign=middle;whiteSpace=wrap;rounded=0;" parent="V17yTtyNviXaEQIzeuZt-1" vertex="1">
          <mxGeometry x="354" y="955" width="60" height="30" as="geometry" />
        </mxCell>
        <mxCell id="V17yTtyNviXaEQIzeuZt-19" value="&lt;font style=&quot;font-size: 16px;&quot;&gt;Yes&lt;/font&gt;" style="text;html=1;strokeColor=none;fillColor=none;align=center;verticalAlign=middle;whiteSpace=wrap;rounded=0;" parent="V17yTtyNviXaEQIzeuZt-1" vertex="1">
          <mxGeometry x="330" y="310" width="60" height="30" as="geometry" />
        </mxCell>
        <mxCell id="V17yTtyNviXaEQIzeuZt-20" value="&lt;font style=&quot;font-size: 16px;&quot;&gt;No&lt;/font&gt;" style="text;html=1;strokeColor=none;fillColor=none;align=center;verticalAlign=middle;whiteSpace=wrap;rounded=0;" parent="V17yTtyNviXaEQIzeuZt-1" vertex="1">
          <mxGeometry x="470" y="250" width="60" height="30" as="geometry" />
        </mxCell>
        <mxCell id="yxLQfnr6C5toMhqmOMqC-2" style="edgeStyle=orthogonalEdgeStyle;rounded=0;orthogonalLoop=1;jettySize=auto;html=1;exitX=0.5;exitY=1;exitDx=0;exitDy=0;entryX=0.5;entryY=0;entryDx=0;entryDy=0;" parent="V17yTtyNviXaEQIzeuZt-1" source="yxLQfnr6C5toMhqmOMqC-0" target="V17yTtyNviXaEQIzeuZt-4" edge="1">
          <mxGeometry relative="1" as="geometry" />
        </mxCell>
        <mxCell id="yxLQfnr6C5toMhqmOMqC-0" value="" style="rounded=0;whiteSpace=wrap;html=1;" parent="V17yTtyNviXaEQIzeuZt-1" vertex="1">
          <mxGeometry x="321.25" y="160" width="112.5" height="40" as="geometry" />
        </mxCell>
        <mxCell id="yxLQfnr6C5toMhqmOMqC-6" style="edgeStyle=orthogonalEdgeStyle;rounded=0;orthogonalLoop=1;jettySize=auto;html=1;exitX=0.5;exitY=1;exitDx=0;exitDy=0;entryX=0.5;entryY=0;entryDx=0;entryDy=0;" parent="V17yTtyNviXaEQIzeuZt-1" source="yxLQfnr6C5toMhqmOMqC-3" target="yxLQfnr6C5toMhqmOMqC-5" edge="1">
          <mxGeometry relative="1" as="geometry" />
        </mxCell>
        <mxCell id="yxLQfnr6C5toMhqmOMqC-3" value="" style="rounded=0;whiteSpace=wrap;html=1;" parent="V17yTtyNviXaEQIzeuZt-1" vertex="1">
          <mxGeometry x="321.25" y="350" width="112.5" height="40" as="geometry" />
        </mxCell>
        <mxCell id="yxLQfnr6C5toMhqmOMqC-18" style="edgeStyle=orthogonalEdgeStyle;rounded=0;orthogonalLoop=1;jettySize=auto;html=1;exitX=0.5;exitY=1;exitDx=0;exitDy=0;entryX=0.5;entryY=0;entryDx=0;entryDy=0;" parent="V17yTtyNviXaEQIzeuZt-1" source="yxLQfnr6C5toMhqmOMqC-5" target="yxLQfnr6C5toMhqmOMqC-20" edge="1">
          <mxGeometry relative="1" as="geometry">
            <mxPoint x="377.5" y="565" as="targetPoint" />
          </mxGeometry>
        </mxCell>
        <mxCell id="yxLQfnr6C5toMhqmOMqC-31" style="edgeStyle=orthogonalEdgeStyle;rounded=0;orthogonalLoop=1;jettySize=auto;html=1;exitX=1;exitY=0.5;exitDx=0;exitDy=0;entryX=1;entryY=0.5;entryDx=0;entryDy=0;" parent="V17yTtyNviXaEQIzeuZt-1" source="yxLQfnr6C5toMhqmOMqC-5" target="yxLQfnr6C5toMhqmOMqC-29" edge="1">
          <mxGeometry relative="1" as="geometry">
            <mxPoint x="520" y="830" as="targetPoint" />
            <Array as="points">
              <mxPoint x="540" y="470" />
              <mxPoint x="540" y="890" />
            </Array>
          </mxGeometry>
        </mxCell>
        <mxCell id="yxLQfnr6C5toMhqmOMqC-5" value="" style="rhombus;whiteSpace=wrap;html=1;" parent="V17yTtyNviXaEQIzeuZt-1" vertex="1">
          <mxGeometry x="312.5" y="430" width="130" height="80" as="geometry" />
        </mxCell>
        <mxCell id="yxLQfnr6C5toMhqmOMqC-9" value="i = 0" style="text;html=1;strokeColor=none;fillColor=none;align=center;verticalAlign=middle;whiteSpace=wrap;rounded=0;" parent="V17yTtyNviXaEQIzeuZt-1" vertex="1">
          <mxGeometry x="347.5" y="165" width="60" height="30" as="geometry" />
        </mxCell>
        <mxCell id="yxLQfnr6C5toMhqmOMqC-11" value="i &amp;lt; n" style="text;html=1;strokeColor=none;fillColor=none;align=center;verticalAlign=middle;whiteSpace=wrap;rounded=0;" parent="V17yTtyNviXaEQIzeuZt-1" vertex="1">
          <mxGeometry x="350" y="260" width="60" height="30" as="geometry" />
        </mxCell>
        <mxCell id="yxLQfnr6C5toMhqmOMqC-13" value="j = i" style="text;html=1;strokeColor=none;fillColor=none;align=center;verticalAlign=middle;whiteSpace=wrap;rounded=0;" parent="V17yTtyNviXaEQIzeuZt-1" vertex="1">
          <mxGeometry x="347.5" y="355" width="60" height="30" as="geometry" />
        </mxCell>
        <mxCell id="yxLQfnr6C5toMhqmOMqC-19" value="j &amp;lt; n - i - 1" style="text;html=1;strokeColor=none;fillColor=none;align=center;verticalAlign=middle;whiteSpace=wrap;rounded=0;" parent="V17yTtyNviXaEQIzeuZt-1" vertex="1">
          <mxGeometry x="347.5" y="455" width="60" height="30" as="geometry" />
        </mxCell>
        <mxCell id="yxLQfnr6C5toMhqmOMqC-23" style="edgeStyle=orthogonalEdgeStyle;rounded=0;orthogonalLoop=1;jettySize=auto;html=1;exitX=0.5;exitY=1;exitDx=0;exitDy=0;entryX=0.5;entryY=0;entryDx=0;entryDy=0;" parent="V17yTtyNviXaEQIzeuZt-1" source="yxLQfnr6C5toMhqmOMqC-20" target="yxLQfnr6C5toMhqmOMqC-22" edge="1">
          <mxGeometry relative="1" as="geometry" />
        </mxCell>
        <mxCell id="yxLQfnr6C5toMhqmOMqC-20" value="" style="rhombus;whiteSpace=wrap;html=1;" parent="V17yTtyNviXaEQIzeuZt-1" vertex="1">
          <mxGeometry x="312.5" y="570" width="130" height="80" as="geometry" />
        </mxCell>
        <mxCell id="yxLQfnr6C5toMhqmOMqC-46" style="edgeStyle=orthogonalEdgeStyle;rounded=0;orthogonalLoop=1;jettySize=auto;html=1;exitX=1;exitY=0.5;exitDx=0;exitDy=0;" parent="V17yTtyNviXaEQIzeuZt-1" source="yxLQfnr6C5toMhqmOMqC-21" edge="1">
          <mxGeometry relative="1" as="geometry">
            <mxPoint x="380" y="790" as="targetPoint" />
            <Array as="points">
              <mxPoint x="500" y="610" />
              <mxPoint x="500" y="790" />
            </Array>
          </mxGeometry>
        </mxCell>
        <mxCell id="yxLQfnr6C5toMhqmOMqC-21" value="*(array+j)&amp;lt;*(array+j+1)" style="text;html=1;strokeColor=none;fillColor=none;align=center;verticalAlign=middle;whiteSpace=wrap;rounded=0;" parent="V17yTtyNviXaEQIzeuZt-1" vertex="1">
          <mxGeometry x="316.25" y="595" width="126.25" height="30" as="geometry" />
        </mxCell>
        <mxCell id="yxLQfnr6C5toMhqmOMqC-28" style="edgeStyle=orthogonalEdgeStyle;rounded=0;orthogonalLoop=1;jettySize=auto;html=1;exitX=0;exitY=0.5;exitDx=0;exitDy=0;" parent="V17yTtyNviXaEQIzeuZt-1" source="yxLQfnr6C5toMhqmOMqC-36" edge="1">
          <mxGeometry relative="1" as="geometry">
            <mxPoint x="378" y="410" as="targetPoint" />
            <Array as="points">
              <mxPoint x="240" y="820" />
              <mxPoint x="240" y="410" />
            </Array>
          </mxGeometry>
        </mxCell>
        <mxCell id="yxLQfnr6C5toMhqmOMqC-38" style="edgeStyle=orthogonalEdgeStyle;rounded=0;orthogonalLoop=1;jettySize=auto;html=1;exitX=0.5;exitY=1;exitDx=0;exitDy=0;entryX=0.5;entryY=0;entryDx=0;entryDy=0;" parent="V17yTtyNviXaEQIzeuZt-1" source="yxLQfnr6C5toMhqmOMqC-22" target="yxLQfnr6C5toMhqmOMqC-36" edge="1">
          <mxGeometry relative="1" as="geometry" />
        </mxCell>
        <mxCell id="yxLQfnr6C5toMhqmOMqC-22" value="" style="rounded=0;whiteSpace=wrap;html=1;" parent="V17yTtyNviXaEQIzeuZt-1" vertex="1">
          <mxGeometry x="292.5" y="700" width="170" height="70" as="geometry" />
        </mxCell>
        <mxCell id="yxLQfnr6C5toMhqmOMqC-24" value="t = *(array+j);&lt;br&gt;*(array+j)=*(array+j+1);&lt;br&gt;*(array+j+1)=t;" style="text;html=1;strokeColor=none;fillColor=none;align=center;verticalAlign=middle;whiteSpace=wrap;rounded=0;" parent="V17yTtyNviXaEQIzeuZt-1" vertex="1">
          <mxGeometry x="307.5" y="722.5" width="140" height="25" as="geometry" />
        </mxCell>
        <mxCell id="yxLQfnr6C5toMhqmOMqC-26" value="&lt;font style=&quot;font-size: 16px;&quot;&gt;Yes&lt;/font&gt;" style="text;html=1;strokeColor=none;fillColor=none;align=center;verticalAlign=middle;whiteSpace=wrap;rounded=0;" parent="V17yTtyNviXaEQIzeuZt-1" vertex="1">
          <mxGeometry x="323.75" y="520" width="60" height="30" as="geometry" />
        </mxCell>
        <mxCell id="yxLQfnr6C5toMhqmOMqC-27" value="&lt;font style=&quot;font-size: 16px;&quot;&gt;Yes&lt;/font&gt;" style="text;html=1;strokeColor=none;fillColor=none;align=center;verticalAlign=middle;whiteSpace=wrap;rounded=0;" parent="V17yTtyNviXaEQIzeuZt-1" vertex="1">
          <mxGeometry x="323.75" y="650" width="60" height="30" as="geometry" />
        </mxCell>
        <mxCell id="yxLQfnr6C5toMhqmOMqC-34" style="edgeStyle=orthogonalEdgeStyle;rounded=0;orthogonalLoop=1;jettySize=auto;html=1;exitX=0;exitY=0.5;exitDx=0;exitDy=0;" parent="V17yTtyNviXaEQIzeuZt-1" source="yxLQfnr6C5toMhqmOMqC-29" edge="1">
          <mxGeometry relative="1" as="geometry">
            <mxPoint x="378" y="220" as="targetPoint" />
            <Array as="points">
              <mxPoint x="200" y="890" />
              <mxPoint x="200" y="220" />
            </Array>
          </mxGeometry>
        </mxCell>
        <mxCell id="yxLQfnr6C5toMhqmOMqC-29" value="&lt;br&gt;" style="rounded=0;whiteSpace=wrap;html=1;" parent="V17yTtyNviXaEQIzeuZt-1" vertex="1">
          <mxGeometry x="321.25" y="870" width="112.5" height="40" as="geometry" />
        </mxCell>
        <mxCell id="yxLQfnr6C5toMhqmOMqC-30" value="i++" style="text;html=1;strokeColor=none;fillColor=none;align=center;verticalAlign=middle;whiteSpace=wrap;rounded=0;" parent="V17yTtyNviXaEQIzeuZt-1" vertex="1">
          <mxGeometry x="347.5" y="875" width="60" height="30" as="geometry" />
        </mxCell>
        <mxCell id="yxLQfnr6C5toMhqmOMqC-33" value="&lt;font style=&quot;font-size: 16px;&quot;&gt;No&lt;/font&gt;" style="text;html=1;strokeColor=none;fillColor=none;align=center;verticalAlign=middle;whiteSpace=wrap;rounded=0;" parent="V17yTtyNviXaEQIzeuZt-1" vertex="1">
          <mxGeometry x="442.5" y="440" width="60" height="30" as="geometry" />
        </mxCell>
        <mxCell id="yxLQfnr6C5toMhqmOMqC-36" value="&lt;br&gt;" style="rounded=0;whiteSpace=wrap;html=1;" parent="V17yTtyNviXaEQIzeuZt-1" vertex="1">
          <mxGeometry x="321.25" y="800" width="112.5" height="40" as="geometry" />
        </mxCell>
        <mxCell id="yxLQfnr6C5toMhqmOMqC-37" value="j++" style="text;html=1;strokeColor=none;fillColor=none;align=center;verticalAlign=middle;whiteSpace=wrap;rounded=0;" parent="V17yTtyNviXaEQIzeuZt-1" vertex="1">
          <mxGeometry x="347.5" y="805" width="60" height="30" as="geometry" />
        </mxCell>
        <mxCell id="yxLQfnr6C5toMhqmOMqC-40" value="&lt;font style=&quot;font-size: 16px;&quot;&gt;No&lt;/font&gt;" style="text;html=1;strokeColor=none;fillColor=none;align=center;verticalAlign=middle;whiteSpace=wrap;rounded=0;" parent="V17yTtyNviXaEQIzeuZt-1" vertex="1">
          <mxGeometry x="436.25" y="580" width="60" height="30" as="geometry" />
        </mxCell>
      </root>
    </mxGraphModel>
  </diagram>
  <diagram name="selection" id="NYbHlcSqCDbJa6seMmSB">
    <mxGraphModel dx="1290" dy="530" grid="1" gridSize="10" guides="1" tooltips="1" connect="1" arrows="1" fold="1" page="1" pageScale="1" pageWidth="827" pageHeight="1169" math="0" shadow="0">
      <root>
        <mxCell id="it6Nqs2jh09yRAR2Ot8Z-0" />
        <mxCell id="it6Nqs2jh09yRAR2Ot8Z-1" parent="it6Nqs2jh09yRAR2Ot8Z-0" />
        <mxCell id="it6Nqs2jh09yRAR2Ot8Z-2" style="edgeStyle=orthogonalEdgeStyle;rounded=0;orthogonalLoop=1;jettySize=auto;html=1;exitX=0.5;exitY=1;exitDx=0;exitDy=0;entryX=0.5;entryY=0;entryDx=0;entryDy=0;" parent="it6Nqs2jh09yRAR2Ot8Z-1" source="it6Nqs2jh09yRAR2Ot8Z-3" target="it6Nqs2jh09yRAR2Ot8Z-13" edge="1">
          <mxGeometry relative="1" as="geometry" />
        </mxCell>
        <mxCell id="it6Nqs2jh09yRAR2Ot8Z-3" value="" style="ellipse;whiteSpace=wrap;html=1;" parent="it6Nqs2jh09yRAR2Ot8Z-1" vertex="1">
          <mxGeometry x="321.5" y="10" width="125" height="60" as="geometry" />
        </mxCell>
        <mxCell id="it6Nqs2jh09yRAR2Ot8Z-4" value="" style="ellipse;whiteSpace=wrap;html=1;" parent="it6Nqs2jh09yRAR2Ot8Z-1" vertex="1">
          <mxGeometry x="320.25" y="1030" width="127.5" height="65" as="geometry" />
        </mxCell>
        <mxCell id="it6Nqs2jh09yRAR2Ot8Z-6" style="edgeStyle=orthogonalEdgeStyle;rounded=0;orthogonalLoop=1;jettySize=auto;html=1;exitX=1;exitY=0.5;exitDx=0;exitDy=0;entryX=1;entryY=0.5;entryDx=0;entryDy=0;" parent="it6Nqs2jh09yRAR2Ot8Z-1" source="it6Nqs2jh09yRAR2Ot8Z-7" target="it6Nqs2jh09yRAR2Ot8Z-4" edge="1">
          <mxGeometry relative="1" as="geometry">
            <mxPoint x="480" y="1030" as="targetPoint" />
            <Array as="points">
              <mxPoint x="580" y="215" />
              <mxPoint x="580" y="1063" />
            </Array>
          </mxGeometry>
        </mxCell>
        <mxCell id="JQopxJ8aQk_7NfzUrQGt-4" style="edgeStyle=orthogonalEdgeStyle;rounded=0;orthogonalLoop=1;jettySize=auto;html=1;exitX=0.5;exitY=1;exitDx=0;exitDy=0;entryX=0.5;entryY=0;entryDx=0;entryDy=0;" parent="it6Nqs2jh09yRAR2Ot8Z-1" source="it6Nqs2jh09yRAR2Ot8Z-7" target="it6Nqs2jh09yRAR2Ot8Z-15" edge="1">
          <mxGeometry relative="1" as="geometry" />
        </mxCell>
        <mxCell id="it6Nqs2jh09yRAR2Ot8Z-7" value="" style="rhombus;whiteSpace=wrap;html=1;" parent="it6Nqs2jh09yRAR2Ot8Z-1" vertex="1">
          <mxGeometry x="319" y="175" width="130" height="80" as="geometry" />
        </mxCell>
        <mxCell id="it6Nqs2jh09yRAR2Ot8Z-8" value="&lt;font style=&quot;font-size: 21px;&quot;&gt;Start&lt;/font&gt;" style="text;html=1;strokeColor=none;fillColor=none;align=center;verticalAlign=middle;whiteSpace=wrap;rounded=0;" parent="it6Nqs2jh09yRAR2Ot8Z-1" vertex="1">
          <mxGeometry x="354" y="25" width="60" height="30" as="geometry" />
        </mxCell>
        <mxCell id="it6Nqs2jh09yRAR2Ot8Z-9" value="&lt;font style=&quot;font-size: 21px;&quot;&gt;Stop&lt;/font&gt;" style="text;html=1;strokeColor=none;fillColor=none;align=center;verticalAlign=middle;whiteSpace=wrap;rounded=0;" parent="it6Nqs2jh09yRAR2Ot8Z-1" vertex="1">
          <mxGeometry x="354" y="1047.5" width="60" height="30" as="geometry" />
        </mxCell>
        <mxCell id="it6Nqs2jh09yRAR2Ot8Z-10" value="&lt;font style=&quot;font-size: 16px;&quot;&gt;Yes&lt;/font&gt;" style="text;html=1;strokeColor=none;fillColor=none;align=center;verticalAlign=middle;whiteSpace=wrap;rounded=0;" parent="it6Nqs2jh09yRAR2Ot8Z-1" vertex="1">
          <mxGeometry x="340" y="250" width="60" height="30" as="geometry" />
        </mxCell>
        <mxCell id="it6Nqs2jh09yRAR2Ot8Z-11" value="&lt;font style=&quot;font-size: 16px;&quot;&gt;No&lt;/font&gt;" style="text;html=1;strokeColor=none;fillColor=none;align=center;verticalAlign=middle;whiteSpace=wrap;rounded=0;" parent="it6Nqs2jh09yRAR2Ot8Z-1" vertex="1">
          <mxGeometry x="480" y="190" width="60" height="30" as="geometry" />
        </mxCell>
        <mxCell id="it6Nqs2jh09yRAR2Ot8Z-12" style="edgeStyle=orthogonalEdgeStyle;rounded=0;orthogonalLoop=1;jettySize=auto;html=1;exitX=0.5;exitY=1;exitDx=0;exitDy=0;entryX=0.5;entryY=0;entryDx=0;entryDy=0;" parent="it6Nqs2jh09yRAR2Ot8Z-1" source="it6Nqs2jh09yRAR2Ot8Z-13" target="it6Nqs2jh09yRAR2Ot8Z-7" edge="1">
          <mxGeometry relative="1" as="geometry" />
        </mxCell>
        <mxCell id="it6Nqs2jh09yRAR2Ot8Z-13" value="" style="rounded=0;whiteSpace=wrap;html=1;" parent="it6Nqs2jh09yRAR2Ot8Z-1" vertex="1">
          <mxGeometry x="327.75" y="100" width="112.5" height="40" as="geometry" />
        </mxCell>
        <mxCell id="JQopxJ8aQk_7NfzUrQGt-5" style="edgeStyle=orthogonalEdgeStyle;rounded=0;orthogonalLoop=1;jettySize=auto;html=1;exitX=0.5;exitY=1;exitDx=0;exitDy=0;entryX=0.5;entryY=0;entryDx=0;entryDy=0;" parent="it6Nqs2jh09yRAR2Ot8Z-1" source="it6Nqs2jh09yRAR2Ot8Z-15" target="JQopxJ8aQk_7NfzUrQGt-1" edge="1">
          <mxGeometry relative="1" as="geometry" />
        </mxCell>
        <mxCell id="it6Nqs2jh09yRAR2Ot8Z-15" value="" style="rounded=0;whiteSpace=wrap;html=1;" parent="it6Nqs2jh09yRAR2Ot8Z-1" vertex="1">
          <mxGeometry x="327.75" y="280" width="112.5" height="40" as="geometry" />
        </mxCell>
        <mxCell id="it6Nqs2jh09yRAR2Ot8Z-16" style="edgeStyle=orthogonalEdgeStyle;rounded=0;orthogonalLoop=1;jettySize=auto;html=1;exitX=0.5;exitY=1;exitDx=0;exitDy=0;entryX=0.5;entryY=0;entryDx=0;entryDy=0;" parent="it6Nqs2jh09yRAR2Ot8Z-1" source="it6Nqs2jh09yRAR2Ot8Z-18" target="it6Nqs2jh09yRAR2Ot8Z-24" edge="1">
          <mxGeometry relative="1" as="geometry">
            <mxPoint x="377.5" y="565" as="targetPoint" />
          </mxGeometry>
        </mxCell>
        <mxCell id="it6Nqs2jh09yRAR2Ot8Z-17" style="edgeStyle=orthogonalEdgeStyle;rounded=0;orthogonalLoop=1;jettySize=auto;html=1;exitX=1;exitY=0.5;exitDx=0;exitDy=0;entryX=1;entryY=0.5;entryDx=0;entryDy=0;" parent="it6Nqs2jh09yRAR2Ot8Z-1" source="it6Nqs2jh09yRAR2Ot8Z-18" target="ao59PNhH58vnb1CS6F0q-2" edge="1">
          <mxGeometry relative="1" as="geometry">
            <mxPoint x="480" y="1010" as="targetPoint" />
            <Array as="points">
              <mxPoint x="540" y="470" />
              <mxPoint x="540" y="895" />
            </Array>
          </mxGeometry>
        </mxCell>
        <mxCell id="it6Nqs2jh09yRAR2Ot8Z-18" value="" style="rhombus;whiteSpace=wrap;html=1;" parent="it6Nqs2jh09yRAR2Ot8Z-1" vertex="1">
          <mxGeometry x="321.25" y="430" width="130" height="80" as="geometry" />
        </mxCell>
        <mxCell id="it6Nqs2jh09yRAR2Ot8Z-19" value="i = 0" style="text;html=1;strokeColor=none;fillColor=none;align=center;verticalAlign=middle;whiteSpace=wrap;rounded=0;" parent="it6Nqs2jh09yRAR2Ot8Z-1" vertex="1">
          <mxGeometry x="354" y="105" width="60" height="30" as="geometry" />
        </mxCell>
        <mxCell id="it6Nqs2jh09yRAR2Ot8Z-20" value="i &amp;lt; n" style="text;html=1;strokeColor=none;fillColor=none;align=center;verticalAlign=middle;whiteSpace=wrap;rounded=0;" parent="it6Nqs2jh09yRAR2Ot8Z-1" vertex="1">
          <mxGeometry x="356.5" y="200" width="60" height="30" as="geometry" />
        </mxCell>
        <mxCell id="it6Nqs2jh09yRAR2Ot8Z-21" value="min = *(array+i);&lt;br&gt;minind = i;" style="text;html=1;strokeColor=none;fillColor=none;align=center;verticalAlign=middle;whiteSpace=wrap;rounded=0;" parent="it6Nqs2jh09yRAR2Ot8Z-1" vertex="1">
          <mxGeometry x="332.5" y="285" width="102.5" height="30" as="geometry" />
        </mxCell>
        <mxCell id="it6Nqs2jh09yRAR2Ot8Z-22" value="j &amp;lt; n" style="text;html=1;strokeColor=none;fillColor=none;align=center;verticalAlign=middle;whiteSpace=wrap;rounded=0;" parent="it6Nqs2jh09yRAR2Ot8Z-1" vertex="1">
          <mxGeometry x="354" y="455" width="60" height="30" as="geometry" />
        </mxCell>
        <mxCell id="it6Nqs2jh09yRAR2Ot8Z-23" style="edgeStyle=orthogonalEdgeStyle;rounded=0;orthogonalLoop=1;jettySize=auto;html=1;exitX=0.5;exitY=1;exitDx=0;exitDy=0;entryX=0.5;entryY=0;entryDx=0;entryDy=0;" parent="it6Nqs2jh09yRAR2Ot8Z-1" source="it6Nqs2jh09yRAR2Ot8Z-24" target="it6Nqs2jh09yRAR2Ot8Z-29" edge="1">
          <mxGeometry relative="1" as="geometry" />
        </mxCell>
        <mxCell id="it6Nqs2jh09yRAR2Ot8Z-24" value="" style="rhombus;whiteSpace=wrap;html=1;" parent="it6Nqs2jh09yRAR2Ot8Z-1" vertex="1">
          <mxGeometry x="321.25" y="570" width="130" height="80" as="geometry" />
        </mxCell>
        <mxCell id="it6Nqs2jh09yRAR2Ot8Z-25" style="edgeStyle=orthogonalEdgeStyle;rounded=0;orthogonalLoop=1;jettySize=auto;html=1;exitX=1;exitY=0.5;exitDx=0;exitDy=0;" parent="it6Nqs2jh09yRAR2Ot8Z-1" source="it6Nqs2jh09yRAR2Ot8Z-26" edge="1">
          <mxGeometry relative="1" as="geometry">
            <mxPoint x="389" y="780" as="targetPoint" />
            <Array as="points">
              <mxPoint x="500" y="610" />
              <mxPoint x="500" y="780" />
            </Array>
          </mxGeometry>
        </mxCell>
        <mxCell id="it6Nqs2jh09yRAR2Ot8Z-26" value="*(array+j)&amp;lt;min" style="text;html=1;strokeColor=none;fillColor=none;align=center;verticalAlign=middle;whiteSpace=wrap;rounded=0;" parent="it6Nqs2jh09yRAR2Ot8Z-1" vertex="1">
          <mxGeometry x="332.5" y="595" width="112.5" height="30" as="geometry" />
        </mxCell>
        <mxCell id="it6Nqs2jh09yRAR2Ot8Z-28" style="edgeStyle=orthogonalEdgeStyle;rounded=0;orthogonalLoop=1;jettySize=auto;html=1;exitX=0.5;exitY=1;exitDx=0;exitDy=0;entryX=0.5;entryY=0;entryDx=0;entryDy=0;" parent="it6Nqs2jh09yRAR2Ot8Z-1" source="it6Nqs2jh09yRAR2Ot8Z-29" target="it6Nqs2jh09yRAR2Ot8Z-37" edge="1">
          <mxGeometry relative="1" as="geometry" />
        </mxCell>
        <mxCell id="it6Nqs2jh09yRAR2Ot8Z-29" value="" style="rounded=0;whiteSpace=wrap;html=1;" parent="it6Nqs2jh09yRAR2Ot8Z-1" vertex="1">
          <mxGeometry x="301.25" y="700" width="170" height="70" as="geometry" />
        </mxCell>
        <mxCell id="it6Nqs2jh09yRAR2Ot8Z-30" value="min = *(array+j);&lt;br&gt;minind = j;" style="text;html=1;strokeColor=none;fillColor=none;align=center;verticalAlign=middle;whiteSpace=wrap;rounded=0;" parent="it6Nqs2jh09yRAR2Ot8Z-1" vertex="1">
          <mxGeometry x="336.88" y="722.5" width="93.75" height="25" as="geometry" />
        </mxCell>
        <mxCell id="it6Nqs2jh09yRAR2Ot8Z-31" value="&lt;font style=&quot;font-size: 16px;&quot;&gt;Yes&lt;/font&gt;" style="text;html=1;strokeColor=none;fillColor=none;align=center;verticalAlign=middle;whiteSpace=wrap;rounded=0;" parent="it6Nqs2jh09yRAR2Ot8Z-1" vertex="1">
          <mxGeometry x="323.75" y="520" width="60" height="30" as="geometry" />
        </mxCell>
        <mxCell id="it6Nqs2jh09yRAR2Ot8Z-32" value="&lt;font style=&quot;font-size: 16px;&quot;&gt;Yes&lt;/font&gt;" style="text;html=1;strokeColor=none;fillColor=none;align=center;verticalAlign=middle;whiteSpace=wrap;rounded=0;" parent="it6Nqs2jh09yRAR2Ot8Z-1" vertex="1">
          <mxGeometry x="323.75" y="650" width="60" height="30" as="geometry" />
        </mxCell>
        <mxCell id="it6Nqs2jh09yRAR2Ot8Z-33" style="edgeStyle=orthogonalEdgeStyle;rounded=0;orthogonalLoop=1;jettySize=auto;html=1;exitX=0;exitY=0.5;exitDx=0;exitDy=0;" parent="it6Nqs2jh09yRAR2Ot8Z-1" source="it6Nqs2jh09yRAR2Ot8Z-34" edge="1">
          <mxGeometry relative="1" as="geometry">
            <mxPoint x="390" y="160" as="targetPoint" />
            <Array as="points">
              <mxPoint x="330" y="980" />
              <mxPoint x="200" y="980" />
              <mxPoint x="200" y="160" />
            </Array>
          </mxGeometry>
        </mxCell>
        <mxCell id="it6Nqs2jh09yRAR2Ot8Z-34" value="&lt;br&gt;" style="rounded=0;whiteSpace=wrap;html=1;" parent="it6Nqs2jh09yRAR2Ot8Z-1" vertex="1">
          <mxGeometry x="330.25" y="955" width="112.5" height="40" as="geometry" />
        </mxCell>
        <mxCell id="it6Nqs2jh09yRAR2Ot8Z-35" value="i++;" style="text;html=1;strokeColor=none;fillColor=none;align=center;verticalAlign=middle;whiteSpace=wrap;rounded=0;" parent="it6Nqs2jh09yRAR2Ot8Z-1" vertex="1">
          <mxGeometry x="354" y="960" width="60" height="30" as="geometry" />
        </mxCell>
        <mxCell id="it6Nqs2jh09yRAR2Ot8Z-36" value="&lt;font style=&quot;font-size: 16px;&quot;&gt;No&lt;/font&gt;" style="text;html=1;strokeColor=none;fillColor=none;align=center;verticalAlign=middle;whiteSpace=wrap;rounded=0;" parent="it6Nqs2jh09yRAR2Ot8Z-1" vertex="1">
          <mxGeometry x="442.5" y="440" width="60" height="30" as="geometry" />
        </mxCell>
        <mxCell id="ao59PNhH58vnb1CS6F0q-0" style="edgeStyle=orthogonalEdgeStyle;rounded=0;orthogonalLoop=1;jettySize=auto;html=1;exitX=0;exitY=0.5;exitDx=0;exitDy=0;" parent="it6Nqs2jh09yRAR2Ot8Z-1" source="it6Nqs2jh09yRAR2Ot8Z-37" edge="1">
          <mxGeometry relative="1" as="geometry">
            <mxPoint x="387" y="420" as="targetPoint" />
            <Array as="points">
              <mxPoint x="240" y="820" />
              <mxPoint x="240" y="420" />
              <mxPoint x="310" y="420" />
            </Array>
          </mxGeometry>
        </mxCell>
        <mxCell id="it6Nqs2jh09yRAR2Ot8Z-37" value="&lt;br&gt;" style="rounded=0;whiteSpace=wrap;html=1;" parent="it6Nqs2jh09yRAR2Ot8Z-1" vertex="1">
          <mxGeometry x="330.25" y="800" width="112.5" height="40" as="geometry" />
        </mxCell>
        <mxCell id="it6Nqs2jh09yRAR2Ot8Z-38" value="j++;" style="text;html=1;strokeColor=none;fillColor=none;align=center;verticalAlign=middle;whiteSpace=wrap;rounded=0;" parent="it6Nqs2jh09yRAR2Ot8Z-1" vertex="1">
          <mxGeometry x="354" y="805" width="60" height="30" as="geometry" />
        </mxCell>
        <mxCell id="it6Nqs2jh09yRAR2Ot8Z-39" value="&lt;font style=&quot;font-size: 16px;&quot;&gt;No&lt;/font&gt;" style="text;html=1;strokeColor=none;fillColor=none;align=center;verticalAlign=middle;whiteSpace=wrap;rounded=0;" parent="it6Nqs2jh09yRAR2Ot8Z-1" vertex="1">
          <mxGeometry x="436.25" y="580" width="60" height="30" as="geometry" />
        </mxCell>
        <mxCell id="JQopxJ8aQk_7NfzUrQGt-6" style="edgeStyle=orthogonalEdgeStyle;rounded=0;orthogonalLoop=1;jettySize=auto;html=1;exitX=0.5;exitY=1;exitDx=0;exitDy=0;entryX=0.5;entryY=0;entryDx=0;entryDy=0;" parent="it6Nqs2jh09yRAR2Ot8Z-1" source="JQopxJ8aQk_7NfzUrQGt-1" target="it6Nqs2jh09yRAR2Ot8Z-18" edge="1">
          <mxGeometry relative="1" as="geometry" />
        </mxCell>
        <mxCell id="JQopxJ8aQk_7NfzUrQGt-1" value="" style="rounded=0;whiteSpace=wrap;html=1;" parent="it6Nqs2jh09yRAR2Ot8Z-1" vertex="1">
          <mxGeometry x="330" y="350" width="112.5" height="40" as="geometry" />
        </mxCell>
        <mxCell id="JQopxJ8aQk_7NfzUrQGt-2" value="j = i;" style="text;html=1;strokeColor=none;fillColor=none;align=center;verticalAlign=middle;whiteSpace=wrap;rounded=0;" parent="it6Nqs2jh09yRAR2Ot8Z-1" vertex="1">
          <mxGeometry x="356.25" y="355" width="60" height="30" as="geometry" />
        </mxCell>
        <mxCell id="ao59PNhH58vnb1CS6F0q-6" style="edgeStyle=orthogonalEdgeStyle;rounded=0;orthogonalLoop=1;jettySize=auto;html=1;exitX=0.5;exitY=1;exitDx=0;exitDy=0;entryX=0.5;entryY=0;entryDx=0;entryDy=0;" parent="it6Nqs2jh09yRAR2Ot8Z-1" source="ao59PNhH58vnb1CS6F0q-2" target="it6Nqs2jh09yRAR2Ot8Z-34" edge="1">
          <mxGeometry relative="1" as="geometry" />
        </mxCell>
        <mxCell id="ao59PNhH58vnb1CS6F0q-2" value="&lt;br&gt;" style="rounded=0;whiteSpace=wrap;html=1;" parent="it6Nqs2jh09yRAR2Ot8Z-1" vertex="1">
          <mxGeometry x="309.63" y="870" width="153.75" height="50" as="geometry" />
        </mxCell>
        <mxCell id="ao59PNhH58vnb1CS6F0q-3" value="&lt;div&gt;*(array+minind)=*(array+i);&lt;/div&gt;&lt;div&gt;&amp;nbsp; &amp;nbsp; &amp;nbsp; &amp;nbsp;*(array+i)=min;&lt;/div&gt;" style="text;html=1;strokeColor=none;fillColor=none;align=center;verticalAlign=middle;whiteSpace=wrap;rounded=0;" parent="it6Nqs2jh09yRAR2Ot8Z-1" vertex="1">
          <mxGeometry x="305.63" y="880" width="161.25" height="30" as="geometry" />
        </mxCell>
      </root>
    </mxGraphModel>
  </diagram>
  <diagram id="C5RBs43oDa-KdzZeNtuy" name="checkpairspointer">
    <mxGraphModel dx="1122" dy="461" grid="1" gridSize="10" guides="1" tooltips="1" connect="1" arrows="1" fold="1" page="1" pageScale="1" pageWidth="827" pageHeight="1169" math="0" shadow="0">
      <root>
        <mxCell id="WIyWlLk6GJQsqaUBKTNV-0" />
        <mxCell id="WIyWlLk6GJQsqaUBKTNV-1" parent="WIyWlLk6GJQsqaUBKTNV-0" />
        <mxCell id="1tKoSjYtLn7CUxQjxqAf-0" style="edgeStyle=orthogonalEdgeStyle;rounded=0;orthogonalLoop=1;jettySize=auto;html=1;exitX=0.5;exitY=1;exitDx=0;exitDy=0;entryX=0.5;entryY=0;entryDx=0;entryDy=0;" edge="1" parent="WIyWlLk6GJQsqaUBKTNV-1" source="1tKoSjYtLn7CUxQjxqAf-1" target="1tKoSjYtLn7CUxQjxqAf-11">
          <mxGeometry relative="1" as="geometry" />
        </mxCell>
        <mxCell id="1tKoSjYtLn7CUxQjxqAf-1" value="" style="ellipse;whiteSpace=wrap;html=1;" vertex="1" parent="WIyWlLk6GJQsqaUBKTNV-1">
          <mxGeometry x="315" y="70" width="125" height="60" as="geometry" />
        </mxCell>
        <mxCell id="1tKoSjYtLn7CUxQjxqAf-40" style="edgeStyle=orthogonalEdgeStyle;rounded=0;orthogonalLoop=1;jettySize=auto;html=1;exitX=0.5;exitY=1;exitDx=0;exitDy=0;entryX=0.5;entryY=0;entryDx=0;entryDy=0;" edge="1" parent="WIyWlLk6GJQsqaUBKTNV-1" source="1tKoSjYtLn7CUxQjxqAf-2" target="1tKoSjYtLn7CUxQjxqAf-38">
          <mxGeometry relative="1" as="geometry" />
        </mxCell>
        <mxCell id="1tKoSjYtLn7CUxQjxqAf-2" value="" style="ellipse;whiteSpace=wrap;html=1;" vertex="1" parent="WIyWlLk6GJQsqaUBKTNV-1">
          <mxGeometry x="313.75" y="937.5" width="127.5" height="65" as="geometry" />
        </mxCell>
        <mxCell id="1tKoSjYtLn7CUxQjxqAf-3" style="edgeStyle=orthogonalEdgeStyle;rounded=0;orthogonalLoop=1;jettySize=auto;html=1;exitX=0.5;exitY=1;exitDx=0;exitDy=0;" edge="1" parent="WIyWlLk6GJQsqaUBKTNV-1" source="1tKoSjYtLn7CUxQjxqAf-5">
          <mxGeometry relative="1" as="geometry">
            <mxPoint x="378" y="350" as="targetPoint" />
          </mxGeometry>
        </mxCell>
        <mxCell id="1tKoSjYtLn7CUxQjxqAf-4" style="edgeStyle=orthogonalEdgeStyle;rounded=0;orthogonalLoop=1;jettySize=auto;html=1;exitX=1;exitY=0.5;exitDx=0;exitDy=0;entryX=1;entryY=0.5;entryDx=0;entryDy=0;" edge="1" parent="WIyWlLk6GJQsqaUBKTNV-1" source="1tKoSjYtLn7CUxQjxqAf-5" target="1tKoSjYtLn7CUxQjxqAf-2">
          <mxGeometry relative="1" as="geometry">
            <mxPoint x="550" y="770" as="targetPoint" />
            <Array as="points">
              <mxPoint x="580" y="275" />
              <mxPoint x="580" y="970" />
            </Array>
          </mxGeometry>
        </mxCell>
        <mxCell id="1tKoSjYtLn7CUxQjxqAf-5" value="" style="rhombus;whiteSpace=wrap;html=1;" vertex="1" parent="WIyWlLk6GJQsqaUBKTNV-1">
          <mxGeometry x="312.5" y="235" width="130" height="80" as="geometry" />
        </mxCell>
        <mxCell id="1tKoSjYtLn7CUxQjxqAf-6" value="&lt;font style=&quot;font-size: 21px;&quot;&gt;Start&lt;/font&gt;" style="text;html=1;strokeColor=none;fillColor=none;align=center;verticalAlign=middle;whiteSpace=wrap;rounded=0;" vertex="1" parent="WIyWlLk6GJQsqaUBKTNV-1">
          <mxGeometry x="347.5" y="85" width="60" height="30" as="geometry" />
        </mxCell>
        <mxCell id="1tKoSjYtLn7CUxQjxqAf-7" value="&lt;font style=&quot;font-size: 12px;&quot;&gt;return status;&lt;/font&gt;" style="text;html=1;strokeColor=none;fillColor=none;align=center;verticalAlign=middle;whiteSpace=wrap;rounded=0;" vertex="1" parent="WIyWlLk6GJQsqaUBKTNV-1">
          <mxGeometry x="341.25" y="955" width="72.5" height="30" as="geometry" />
        </mxCell>
        <mxCell id="1tKoSjYtLn7CUxQjxqAf-8" value="&lt;font style=&quot;font-size: 16px;&quot;&gt;Yes&lt;/font&gt;" style="text;html=1;strokeColor=none;fillColor=none;align=center;verticalAlign=middle;whiteSpace=wrap;rounded=0;" vertex="1" parent="WIyWlLk6GJQsqaUBKTNV-1">
          <mxGeometry x="330" y="310" width="60" height="30" as="geometry" />
        </mxCell>
        <mxCell id="1tKoSjYtLn7CUxQjxqAf-9" value="&lt;font style=&quot;font-size: 16px;&quot;&gt;No&lt;/font&gt;" style="text;html=1;strokeColor=none;fillColor=none;align=center;verticalAlign=middle;whiteSpace=wrap;rounded=0;" vertex="1" parent="WIyWlLk6GJQsqaUBKTNV-1">
          <mxGeometry x="470" y="250" width="60" height="30" as="geometry" />
        </mxCell>
        <mxCell id="1tKoSjYtLn7CUxQjxqAf-10" style="edgeStyle=orthogonalEdgeStyle;rounded=0;orthogonalLoop=1;jettySize=auto;html=1;exitX=0.5;exitY=1;exitDx=0;exitDy=0;entryX=0.5;entryY=0;entryDx=0;entryDy=0;" edge="1" parent="WIyWlLk6GJQsqaUBKTNV-1" source="1tKoSjYtLn7CUxQjxqAf-11" target="1tKoSjYtLn7CUxQjxqAf-5">
          <mxGeometry relative="1" as="geometry" />
        </mxCell>
        <mxCell id="1tKoSjYtLn7CUxQjxqAf-11" value="" style="rounded=0;whiteSpace=wrap;html=1;" vertex="1" parent="WIyWlLk6GJQsqaUBKTNV-1">
          <mxGeometry x="321.25" y="160" width="112.5" height="40" as="geometry" />
        </mxCell>
        <mxCell id="1tKoSjYtLn7CUxQjxqAf-12" style="edgeStyle=orthogonalEdgeStyle;rounded=0;orthogonalLoop=1;jettySize=auto;html=1;exitX=0.5;exitY=1;exitDx=0;exitDy=0;entryX=0.5;entryY=0;entryDx=0;entryDy=0;" edge="1" parent="WIyWlLk6GJQsqaUBKTNV-1" source="1tKoSjYtLn7CUxQjxqAf-13" target="1tKoSjYtLn7CUxQjxqAf-16">
          <mxGeometry relative="1" as="geometry" />
        </mxCell>
        <mxCell id="1tKoSjYtLn7CUxQjxqAf-13" value="" style="rounded=0;whiteSpace=wrap;html=1;" vertex="1" parent="WIyWlLk6GJQsqaUBKTNV-1">
          <mxGeometry x="321.25" y="350" width="112.5" height="40" as="geometry" />
        </mxCell>
        <mxCell id="1tKoSjYtLn7CUxQjxqAf-14" style="edgeStyle=orthogonalEdgeStyle;rounded=0;orthogonalLoop=1;jettySize=auto;html=1;exitX=0.5;exitY=1;exitDx=0;exitDy=0;entryX=0.5;entryY=0;entryDx=0;entryDy=0;" edge="1" parent="WIyWlLk6GJQsqaUBKTNV-1" source="1tKoSjYtLn7CUxQjxqAf-16" target="1tKoSjYtLn7CUxQjxqAf-22">
          <mxGeometry relative="1" as="geometry">
            <mxPoint x="377.5" y="565" as="targetPoint" />
          </mxGeometry>
        </mxCell>
        <mxCell id="1tKoSjYtLn7CUxQjxqAf-15" style="edgeStyle=orthogonalEdgeStyle;rounded=0;orthogonalLoop=1;jettySize=auto;html=1;exitX=1;exitY=0.5;exitDx=0;exitDy=0;entryX=1;entryY=0.5;entryDx=0;entryDy=0;" edge="1" parent="WIyWlLk6GJQsqaUBKTNV-1" source="1tKoSjYtLn7CUxQjxqAf-16" target="1tKoSjYtLn7CUxQjxqAf-32">
          <mxGeometry relative="1" as="geometry">
            <mxPoint x="520" y="830" as="targetPoint" />
            <Array as="points">
              <mxPoint x="540" y="470" />
              <mxPoint x="540" y="890" />
            </Array>
          </mxGeometry>
        </mxCell>
        <mxCell id="1tKoSjYtLn7CUxQjxqAf-16" value="" style="rhombus;whiteSpace=wrap;html=1;" vertex="1" parent="WIyWlLk6GJQsqaUBKTNV-1">
          <mxGeometry x="312.5" y="430" width="130" height="80" as="geometry" />
        </mxCell>
        <mxCell id="1tKoSjYtLn7CUxQjxqAf-17" value="i = 0;" style="text;html=1;strokeColor=none;fillColor=none;align=center;verticalAlign=middle;whiteSpace=wrap;rounded=0;" vertex="1" parent="WIyWlLk6GJQsqaUBKTNV-1">
          <mxGeometry x="347.5" y="165" width="60" height="30" as="geometry" />
        </mxCell>
        <mxCell id="1tKoSjYtLn7CUxQjxqAf-18" value="i &amp;lt; n - 2" style="text;html=1;strokeColor=none;fillColor=none;align=center;verticalAlign=middle;whiteSpace=wrap;rounded=0;" vertex="1" parent="WIyWlLk6GJQsqaUBKTNV-1">
          <mxGeometry x="350" y="260" width="60" height="30" as="geometry" />
        </mxCell>
        <mxCell id="1tKoSjYtLn7CUxQjxqAf-19" value="k = i + 2;" style="text;html=1;strokeColor=none;fillColor=none;align=center;verticalAlign=middle;whiteSpace=wrap;rounded=0;" vertex="1" parent="WIyWlLk6GJQsqaUBKTNV-1">
          <mxGeometry x="347.5" y="355" width="60" height="30" as="geometry" />
        </mxCell>
        <mxCell id="1tKoSjYtLn7CUxQjxqAf-20" value="k &amp;lt; n" style="text;html=1;strokeColor=none;fillColor=none;align=center;verticalAlign=middle;whiteSpace=wrap;rounded=0;" vertex="1" parent="WIyWlLk6GJQsqaUBKTNV-1">
          <mxGeometry x="347.5" y="455" width="60" height="30" as="geometry" />
        </mxCell>
        <mxCell id="1tKoSjYtLn7CUxQjxqAf-43" style="edgeStyle=orthogonalEdgeStyle;rounded=0;orthogonalLoop=1;jettySize=auto;html=1;exitX=0;exitY=0.5;exitDx=0;exitDy=0;entryX=0.5;entryY=0;entryDx=0;entryDy=0;" edge="1" parent="WIyWlLk6GJQsqaUBKTNV-1" source="1tKoSjYtLn7CUxQjxqAf-22" target="1tKoSjYtLn7CUxQjxqAf-27">
          <mxGeometry relative="1" as="geometry" />
        </mxCell>
        <mxCell id="1tKoSjYtLn7CUxQjxqAf-45" style="edgeStyle=orthogonalEdgeStyle;rounded=0;orthogonalLoop=1;jettySize=auto;html=1;exitX=1;exitY=0.5;exitDx=0;exitDy=0;entryX=0.5;entryY=0;entryDx=0;entryDy=0;" edge="1" parent="WIyWlLk6GJQsqaUBKTNV-1" source="1tKoSjYtLn7CUxQjxqAf-22" target="1tKoSjYtLn7CUxQjxqAf-41">
          <mxGeometry relative="1" as="geometry">
            <Array as="points">
              <mxPoint x="510" y="610" />
              <mxPoint x="510" y="672" />
              <mxPoint x="463" y="672" />
            </Array>
          </mxGeometry>
        </mxCell>
        <mxCell id="1tKoSjYtLn7CUxQjxqAf-22" value="" style="rhombus;whiteSpace=wrap;html=1;" vertex="1" parent="WIyWlLk6GJQsqaUBKTNV-1">
          <mxGeometry x="277.5" y="570" width="200" height="80" as="geometry" />
        </mxCell>
        <mxCell id="1tKoSjYtLn7CUxQjxqAf-24" value="*(array+i)==*(array+k) &amp;amp;&amp;amp; *(array+i+1)==*(array+k+1)" style="text;html=1;strokeColor=none;fillColor=none;align=center;verticalAlign=middle;whiteSpace=wrap;rounded=0;" vertex="1" parent="WIyWlLk6GJQsqaUBKTNV-1">
          <mxGeometry x="315" y="600" width="131.82" height="25" as="geometry" />
        </mxCell>
        <mxCell id="1tKoSjYtLn7CUxQjxqAf-25" style="edgeStyle=orthogonalEdgeStyle;rounded=0;orthogonalLoop=1;jettySize=auto;html=1;exitX=0;exitY=0.5;exitDx=0;exitDy=0;" edge="1" parent="WIyWlLk6GJQsqaUBKTNV-1" source="1tKoSjYtLn7CUxQjxqAf-35">
          <mxGeometry relative="1" as="geometry">
            <mxPoint x="378" y="410" as="targetPoint" />
            <Array as="points">
              <mxPoint x="240" y="820" />
              <mxPoint x="240" y="410" />
            </Array>
            <mxPoint x="250" y="770" as="sourcePoint" />
          </mxGeometry>
        </mxCell>
        <mxCell id="1tKoSjYtLn7CUxQjxqAf-47" style="edgeStyle=orthogonalEdgeStyle;rounded=0;orthogonalLoop=1;jettySize=auto;html=1;exitX=0.5;exitY=1;exitDx=0;exitDy=0;entryX=0.5;entryY=0;entryDx=0;entryDy=0;" edge="1" parent="WIyWlLk6GJQsqaUBKTNV-1" source="1tKoSjYtLn7CUxQjxqAf-27" target="1tKoSjYtLn7CUxQjxqAf-35">
          <mxGeometry relative="1" as="geometry" />
        </mxCell>
        <mxCell id="1tKoSjYtLn7CUxQjxqAf-27" value="" style="rounded=0;whiteSpace=wrap;html=1;" vertex="1" parent="WIyWlLk6GJQsqaUBKTNV-1">
          <mxGeometry x="265" y="695" width="87.5" height="35" as="geometry" />
        </mxCell>
        <mxCell id="1tKoSjYtLn7CUxQjxqAf-28" value="status = 1;" style="text;html=1;strokeColor=none;fillColor=none;align=center;verticalAlign=middle;whiteSpace=wrap;rounded=0;" vertex="1" parent="WIyWlLk6GJQsqaUBKTNV-1">
          <mxGeometry x="278.75" y="700" width="60" height="25" as="geometry" />
        </mxCell>
        <mxCell id="1tKoSjYtLn7CUxQjxqAf-29" value="&lt;font style=&quot;font-size: 16px;&quot;&gt;Yes&lt;/font&gt;" style="text;html=1;strokeColor=none;fillColor=none;align=center;verticalAlign=middle;whiteSpace=wrap;rounded=0;" vertex="1" parent="WIyWlLk6GJQsqaUBKTNV-1">
          <mxGeometry x="323.75" y="520" width="60" height="30" as="geometry" />
        </mxCell>
        <mxCell id="1tKoSjYtLn7CUxQjxqAf-30" value="&lt;font style=&quot;font-size: 16px;&quot;&gt;Yes&lt;/font&gt;" style="text;html=1;strokeColor=none;fillColor=none;align=center;verticalAlign=middle;whiteSpace=wrap;rounded=0;" vertex="1" parent="WIyWlLk6GJQsqaUBKTNV-1">
          <mxGeometry x="240" y="580" width="60" height="30" as="geometry" />
        </mxCell>
        <mxCell id="1tKoSjYtLn7CUxQjxqAf-31" style="edgeStyle=orthogonalEdgeStyle;rounded=0;orthogonalLoop=1;jettySize=auto;html=1;exitX=0;exitY=0.5;exitDx=0;exitDy=0;" edge="1" parent="WIyWlLk6GJQsqaUBKTNV-1" source="1tKoSjYtLn7CUxQjxqAf-32">
          <mxGeometry relative="1" as="geometry">
            <mxPoint x="378" y="220" as="targetPoint" />
            <Array as="points">
              <mxPoint x="200" y="890" />
              <mxPoint x="200" y="220" />
            </Array>
          </mxGeometry>
        </mxCell>
        <mxCell id="1tKoSjYtLn7CUxQjxqAf-32" value="&lt;br&gt;" style="rounded=0;whiteSpace=wrap;html=1;" vertex="1" parent="WIyWlLk6GJQsqaUBKTNV-1">
          <mxGeometry x="321.25" y="870" width="112.5" height="40" as="geometry" />
        </mxCell>
        <mxCell id="1tKoSjYtLn7CUxQjxqAf-33" value="i += 2;" style="text;html=1;strokeColor=none;fillColor=none;align=center;verticalAlign=middle;whiteSpace=wrap;rounded=0;" vertex="1" parent="WIyWlLk6GJQsqaUBKTNV-1">
          <mxGeometry x="347.5" y="875" width="60" height="30" as="geometry" />
        </mxCell>
        <mxCell id="1tKoSjYtLn7CUxQjxqAf-34" value="&lt;font style=&quot;font-size: 16px;&quot;&gt;No&lt;/font&gt;" style="text;html=1;strokeColor=none;fillColor=none;align=center;verticalAlign=middle;whiteSpace=wrap;rounded=0;" vertex="1" parent="WIyWlLk6GJQsqaUBKTNV-1">
          <mxGeometry x="442.5" y="440" width="60" height="30" as="geometry" />
        </mxCell>
        <mxCell id="1tKoSjYtLn7CUxQjxqAf-35" value="&lt;br&gt;" style="rounded=0;whiteSpace=wrap;html=1;" vertex="1" parent="WIyWlLk6GJQsqaUBKTNV-1">
          <mxGeometry x="252.5" y="800" width="112.5" height="40" as="geometry" />
        </mxCell>
        <mxCell id="1tKoSjYtLn7CUxQjxqAf-36" value="k += 2;" style="text;html=1;strokeColor=none;fillColor=none;align=center;verticalAlign=middle;whiteSpace=wrap;rounded=0;" vertex="1" parent="WIyWlLk6GJQsqaUBKTNV-1">
          <mxGeometry x="278.75" y="805" width="60" height="30" as="geometry" />
        </mxCell>
        <mxCell id="1tKoSjYtLn7CUxQjxqAf-37" value="&lt;font style=&quot;font-size: 16px;&quot;&gt;No&lt;/font&gt;" style="text;html=1;strokeColor=none;fillColor=none;align=center;verticalAlign=middle;whiteSpace=wrap;rounded=0;" vertex="1" parent="WIyWlLk6GJQsqaUBKTNV-1">
          <mxGeometry x="470" y="580" width="60" height="30" as="geometry" />
        </mxCell>
        <mxCell id="1tKoSjYtLn7CUxQjxqAf-38" value="" style="ellipse;whiteSpace=wrap;html=1;" vertex="1" parent="WIyWlLk6GJQsqaUBKTNV-1">
          <mxGeometry x="313.75" y="1020" width="127.5" height="65" as="geometry" />
        </mxCell>
        <mxCell id="1tKoSjYtLn7CUxQjxqAf-39" value="&lt;font style=&quot;font-size: 21px;&quot;&gt;Stop&lt;/font&gt;" style="text;html=1;strokeColor=none;fillColor=none;align=center;verticalAlign=middle;whiteSpace=wrap;rounded=0;" vertex="1" parent="WIyWlLk6GJQsqaUBKTNV-1">
          <mxGeometry x="347.5" y="1037.5" width="60" height="30" as="geometry" />
        </mxCell>
        <mxCell id="1tKoSjYtLn7CUxQjxqAf-41" value="" style="rounded=0;whiteSpace=wrap;html=1;" vertex="1" parent="WIyWlLk6GJQsqaUBKTNV-1">
          <mxGeometry x="419.32" y="695" width="87.5" height="35" as="geometry" />
        </mxCell>
        <mxCell id="1tKoSjYtLn7CUxQjxqAf-44" value="status = 0;" style="text;html=1;strokeColor=none;fillColor=none;align=center;verticalAlign=middle;whiteSpace=wrap;rounded=0;" vertex="1" parent="WIyWlLk6GJQsqaUBKTNV-1">
          <mxGeometry x="433.07" y="700" width="60" height="25" as="geometry" />
        </mxCell>
        <mxCell id="1tKoSjYtLn7CUxQjxqAf-48" value="" style="ellipse;whiteSpace=wrap;html=1;" vertex="1" parent="WIyWlLk6GJQsqaUBKTNV-1">
          <mxGeometry x="407.5" y="760" width="100" height="55" as="geometry" />
        </mxCell>
        <mxCell id="1tKoSjYtLn7CUxQjxqAf-49" value="&lt;font style=&quot;font-size: 12px;&quot;&gt;return status;&lt;/font&gt;" style="text;html=1;strokeColor=none;fillColor=none;align=center;verticalAlign=middle;whiteSpace=wrap;rounded=0;" vertex="1" parent="WIyWlLk6GJQsqaUBKTNV-1">
          <mxGeometry x="421.25" y="772.5" width="72.5" height="30" as="geometry" />
        </mxCell>
        <mxCell id="1tKoSjYtLn7CUxQjxqAf-50" style="edgeStyle=orthogonalEdgeStyle;rounded=0;orthogonalLoop=1;jettySize=auto;html=1;exitX=0.5;exitY=1;exitDx=0;exitDy=0;entryX=0.562;entryY=0.01;entryDx=0;entryDy=0;entryPerimeter=0;" edge="1" parent="WIyWlLk6GJQsqaUBKTNV-1" source="1tKoSjYtLn7CUxQjxqAf-41" target="1tKoSjYtLn7CUxQjxqAf-48">
          <mxGeometry relative="1" as="geometry" />
        </mxCell>
      </root>
    </mxGraphModel>
  </diagram>
  <diagram name="main" id="Sqrm40eoFnLcUjOGWVYg">
    <mxGraphModel dx="2345" dy="964" grid="1" gridSize="10" guides="1" tooltips="1" connect="1" arrows="1" fold="1" page="1" pageScale="1" pageWidth="827" pageHeight="1169" math="0" shadow="0">
      <root>
        <mxCell id="3H7HPgn0VHFLTJipVOY2-0" />
        <mxCell id="3H7HPgn0VHFLTJipVOY2-1" parent="3H7HPgn0VHFLTJipVOY2-0" />
        <mxCell id="W_5d_hWZ6USkTGCVWUqq-48" style="edgeStyle=orthogonalEdgeStyle;rounded=0;orthogonalLoop=1;jettySize=auto;html=1;exitX=0.5;exitY=1;exitDx=0;exitDy=0;entryX=0.5;entryY=0;entryDx=0;entryDy=0;" parent="3H7HPgn0VHFLTJipVOY2-1" source="3H7HPgn0VHFLTJipVOY2-3" target="EoMibZ9f0mw4u26t--qV-0" edge="1">
          <mxGeometry relative="1" as="geometry" />
        </mxCell>
        <mxCell id="3H7HPgn0VHFLTJipVOY2-3" value="" style="ellipse;whiteSpace=wrap;html=1;" parent="3H7HPgn0VHFLTJipVOY2-1" vertex="1">
          <mxGeometry x="102.06" y="50" width="125" height="60" as="geometry" />
        </mxCell>
        <mxCell id="3H7HPgn0VHFLTJipVOY2-4" value="" style="ellipse;whiteSpace=wrap;html=1;" parent="3H7HPgn0VHFLTJipVOY2-1" vertex="1">
          <mxGeometry x="493.84" y="650" width="127.5" height="65" as="geometry" />
        </mxCell>
        <mxCell id="3H7HPgn0VHFLTJipVOY2-8" value="&lt;font style=&quot;font-size: 21px;&quot;&gt;Start&lt;/font&gt;" style="text;html=1;strokeColor=none;fillColor=none;align=center;verticalAlign=middle;whiteSpace=wrap;rounded=0;" parent="3H7HPgn0VHFLTJipVOY2-1" vertex="1">
          <mxGeometry x="134.56" y="65" width="60" height="30" as="geometry" />
        </mxCell>
        <mxCell id="3H7HPgn0VHFLTJipVOY2-9" value="&lt;font style=&quot;font-size: 21px;&quot;&gt;Stop&lt;/font&gt;" style="text;html=1;strokeColor=none;fillColor=none;align=center;verticalAlign=middle;whiteSpace=wrap;rounded=0;" parent="3H7HPgn0VHFLTJipVOY2-1" vertex="1">
          <mxGeometry x="527.5899999999999" y="667.5" width="60" height="30" as="geometry" />
        </mxCell>
        <mxCell id="W_5d_hWZ6USkTGCVWUqq-49" style="edgeStyle=orthogonalEdgeStyle;rounded=0;orthogonalLoop=1;jettySize=auto;html=1;exitX=0.5;exitY=1;exitDx=0;exitDy=0;entryX=0.5;entryY=0;entryDx=0;entryDy=0;" parent="3H7HPgn0VHFLTJipVOY2-1" source="EoMibZ9f0mw4u26t--qV-0" target="EoMibZ9f0mw4u26t--qV-3" edge="1">
          <mxGeometry relative="1" as="geometry" />
        </mxCell>
        <mxCell id="EoMibZ9f0mw4u26t--qV-0" value="" style="shape=parallelogram;perimeter=parallelogramPerimeter;whiteSpace=wrap;html=1;fixedSize=1;" parent="3H7HPgn0VHFLTJipVOY2-1" vertex="1">
          <mxGeometry x="86.63" y="140" width="155.87" height="50" as="geometry" />
        </mxCell>
        <mxCell id="EoMibZ9f0mw4u26t--qV-1" value="printf(&quot;Enter n: &quot;); scanf(&quot;%d&quot;, &amp;amp;n);" style="text;html=1;strokeColor=none;fillColor=none;align=center;verticalAlign=middle;whiteSpace=wrap;rounded=0;" parent="3H7HPgn0VHFLTJipVOY2-1" vertex="1">
          <mxGeometry x="110.57" y="150" width="112.5" height="30" as="geometry" />
        </mxCell>
        <mxCell id="DOnN0VtdtFe00satPa3--4" style="edgeStyle=orthogonalEdgeStyle;rounded=0;orthogonalLoop=1;jettySize=auto;html=1;exitX=1;exitY=0.5;exitDx=0;exitDy=0;entryX=0.5;entryY=0;entryDx=0;entryDy=0;" parent="3H7HPgn0VHFLTJipVOY2-1" source="EoMibZ9f0mw4u26t--qV-2" target="EoMibZ9f0mw4u26t--qV-10" edge="1">
          <mxGeometry relative="1" as="geometry">
            <mxPoint x="280" y="530.0000000000001" as="targetPoint" />
            <Array as="points">
              <mxPoint x="270" y="330" />
              <mxPoint x="270" y="530" />
              <mxPoint x="165" y="530" />
            </Array>
          </mxGeometry>
        </mxCell>
        <mxCell id="EoMibZ9f0mw4u26t--qV-2" value="" style="rhombus;whiteSpace=wrap;html=1;" parent="3H7HPgn0VHFLTJipVOY2-1" vertex="1">
          <mxGeometry x="90.69" y="290" width="152.25" height="80" as="geometry" />
        </mxCell>
        <mxCell id="W_5d_hWZ6USkTGCVWUqq-50" style="edgeStyle=orthogonalEdgeStyle;rounded=0;orthogonalLoop=1;jettySize=auto;html=1;exitX=0.5;exitY=1;exitDx=0;exitDy=0;entryX=0.5;entryY=0;entryDx=0;entryDy=0;" parent="3H7HPgn0VHFLTJipVOY2-1" source="EoMibZ9f0mw4u26t--qV-3" target="EoMibZ9f0mw4u26t--qV-2" edge="1">
          <mxGeometry relative="1" as="geometry" />
        </mxCell>
        <mxCell id="EoMibZ9f0mw4u26t--qV-3" value="" style="rounded=0;whiteSpace=wrap;html=1;" parent="3H7HPgn0VHFLTJipVOY2-1" vertex="1">
          <mxGeometry x="108.31" y="220" width="112.5" height="40" as="geometry" />
        </mxCell>
        <mxCell id="EoMibZ9f0mw4u26t--qV-4" value="i = 0;" style="text;html=1;strokeColor=none;fillColor=none;align=center;verticalAlign=middle;whiteSpace=wrap;rounded=0;" parent="3H7HPgn0VHFLTJipVOY2-1" vertex="1">
          <mxGeometry x="134.56" y="225" width="60" height="30" as="geometry" />
        </mxCell>
        <mxCell id="EoMibZ9f0mw4u26t--qV-5" value="i &amp;lt; n" style="text;html=1;strokeColor=none;fillColor=none;align=center;verticalAlign=middle;whiteSpace=wrap;rounded=0;" parent="3H7HPgn0VHFLTJipVOY2-1" vertex="1">
          <mxGeometry x="136.81" y="315" width="60" height="30" as="geometry" />
        </mxCell>
        <mxCell id="EoMibZ9f0mw4u26t--qV-6" value="&lt;div&gt;scanf(&quot;%d&quot;, &amp;amp;A[i]);&lt;/div&gt;&lt;div&gt;&lt;br&gt;&lt;/div&gt;" style="shape=parallelogram;perimeter=parallelogramPerimeter;whiteSpace=wrap;html=1;fixedSize=1;" parent="3H7HPgn0VHFLTJipVOY2-1" vertex="1">
          <mxGeometry x="82.63" y="395" width="155.87" height="45" as="geometry" />
        </mxCell>
        <mxCell id="DOnN0VtdtFe00satPa3--3" style="edgeStyle=orthogonalEdgeStyle;rounded=0;orthogonalLoop=1;jettySize=auto;html=1;exitX=0;exitY=0.5;exitDx=0;exitDy=0;" parent="3H7HPgn0VHFLTJipVOY2-1" source="EoMibZ9f0mw4u26t--qV-7" edge="1">
          <mxGeometry relative="1" as="geometry">
            <mxPoint x="167" y="270" as="targetPoint" />
            <Array as="points">
              <mxPoint x="40" y="485" />
              <mxPoint x="40" y="270" />
            </Array>
          </mxGeometry>
        </mxCell>
        <mxCell id="EoMibZ9f0mw4u26t--qV-7" value="" style="rounded=0;whiteSpace=wrap;html=1;" parent="3H7HPgn0VHFLTJipVOY2-1" vertex="1">
          <mxGeometry x="110.55999999999999" y="465" width="112.5" height="40" as="geometry" />
        </mxCell>
        <mxCell id="EoMibZ9f0mw4u26t--qV-8" value="&amp;nbsp; &amp;nbsp; copy[i]=A[i];&lt;br&gt;i++;" style="text;html=1;strokeColor=none;fillColor=none;align=center;verticalAlign=middle;whiteSpace=wrap;rounded=0;" parent="3H7HPgn0VHFLTJipVOY2-1" vertex="1">
          <mxGeometry x="140.8" y="465" width="60" height="30" as="geometry" />
        </mxCell>
        <mxCell id="DOnN0VtdtFe00satPa3--6" style="edgeStyle=orthogonalEdgeStyle;rounded=0;orthogonalLoop=1;jettySize=auto;html=1;exitX=0.5;exitY=1;exitDx=0;exitDy=0;entryX=0.5;entryY=0;entryDx=0;entryDy=0;" parent="3H7HPgn0VHFLTJipVOY2-1" source="EoMibZ9f0mw4u26t--qV-10" target="EoMibZ9f0mw4u26t--qV-16" edge="1">
          <mxGeometry relative="1" as="geometry">
            <mxPoint x="310" y="30" as="targetPoint" />
            <Array as="points">
              <mxPoint x="165" y="620" />
              <mxPoint x="320" y="620" />
              <mxPoint x="320" y="30" />
              <mxPoint x="568" y="30" />
            </Array>
          </mxGeometry>
        </mxCell>
        <mxCell id="EoMibZ9f0mw4u26t--qV-10" value="" style="rounded=0;whiteSpace=wrap;html=1;" parent="3H7HPgn0VHFLTJipVOY2-1" vertex="1">
          <mxGeometry x="70" y="550" width="189.12" height="50" as="geometry" />
        </mxCell>
        <mxCell id="EoMibZ9f0mw4u26t--qV-11" value="status = 1;&lt;br&gt;status = checkpairspointer(A,n);" style="text;html=1;strokeColor=none;fillColor=none;align=center;verticalAlign=middle;whiteSpace=wrap;rounded=0;" parent="3H7HPgn0VHFLTJipVOY2-1" vertex="1">
          <mxGeometry x="70.81" y="560" width="192.5" height="30" as="geometry" />
        </mxCell>
        <mxCell id="DOnN0VtdtFe00satPa3--7" style="edgeStyle=orthogonalEdgeStyle;rounded=0;orthogonalLoop=1;jettySize=auto;html=1;exitX=0;exitY=0.5;exitDx=0;exitDy=0;entryX=0.5;entryY=0;entryDx=0;entryDy=0;" parent="3H7HPgn0VHFLTJipVOY2-1" source="EoMibZ9f0mw4u26t--qV-16" target="EoMibZ9f0mw4u26t--qV-18" edge="1">
          <mxGeometry relative="1" as="geometry" />
        </mxCell>
        <mxCell id="EoMibZ9f0mw4u26t--qV-16" value="" style="rhombus;whiteSpace=wrap;html=1;" parent="3H7HPgn0VHFLTJipVOY2-1" vertex="1">
          <mxGeometry x="492.29999999999995" y="50" width="152.25" height="80" as="geometry" />
        </mxCell>
        <mxCell id="EoMibZ9f0mw4u26t--qV-17" value="status == 1" style="text;html=1;strokeColor=none;fillColor=none;align=center;verticalAlign=middle;whiteSpace=wrap;rounded=0;" parent="3H7HPgn0VHFLTJipVOY2-1" vertex="1">
          <mxGeometry x="532.68" y="75" width="76" height="30" as="geometry" />
        </mxCell>
        <mxCell id="DOnN0VtdtFe00satPa3--11" style="edgeStyle=orthogonalEdgeStyle;rounded=0;orthogonalLoop=1;jettySize=auto;html=1;exitX=0.5;exitY=1;exitDx=0;exitDy=0;entryX=0.5;entryY=0;entryDx=0;entryDy=0;" parent="3H7HPgn0VHFLTJipVOY2-1" source="EoMibZ9f0mw4u26t--qV-18" target="EoMibZ9f0mw4u26t--qV-22" edge="1">
          <mxGeometry relative="1" as="geometry" />
        </mxCell>
        <mxCell id="EoMibZ9f0mw4u26t--qV-18" value="" style="shape=parallelogram;perimeter=parallelogramPerimeter;whiteSpace=wrap;html=1;fixedSize=1;" parent="3H7HPgn0VHFLTJipVOY2-1" vertex="1">
          <mxGeometry x="361.21999999999997" y="150" width="172.12" height="60" as="geometry" />
        </mxCell>
        <mxCell id="DOnN0VtdtFe00satPa3--26" style="edgeStyle=orthogonalEdgeStyle;rounded=0;orthogonalLoop=1;jettySize=auto;html=1;exitX=0.5;exitY=1;exitDx=0;exitDy=0;entryX=0.5;entryY=0;entryDx=0;entryDy=0;" parent="3H7HPgn0VHFLTJipVOY2-1" source="EoMibZ9f0mw4u26t--qV-19" target="EoMibZ9f0mw4u26t--qV-24" edge="1">
          <mxGeometry relative="1" as="geometry" />
        </mxCell>
        <mxCell id="EoMibZ9f0mw4u26t--qV-19" value="" style="shape=parallelogram;perimeter=parallelogramPerimeter;whiteSpace=wrap;html=1;fixedSize=1;" parent="3H7HPgn0VHFLTJipVOY2-1" vertex="1">
          <mxGeometry x="599.08" y="150" width="170.92" height="60" as="geometry" />
        </mxCell>
        <mxCell id="EoMibZ9f0mw4u26t--qV-20" value="printf(&quot;All elements are equal two by two.\n&quot;);" style="text;html=1;strokeColor=none;fillColor=none;align=center;verticalAlign=middle;whiteSpace=wrap;rounded=0;" parent="3H7HPgn0VHFLTJipVOY2-1" vertex="1">
          <mxGeometry x="381.21999999999997" y="165" width="132.12" height="30" as="geometry" />
        </mxCell>
        <mxCell id="EoMibZ9f0mw4u26t--qV-21" value="printf(&quot;Not all elements are equal two by two.\n&quot;);" style="text;html=1;strokeColor=none;fillColor=none;align=center;verticalAlign=middle;whiteSpace=wrap;rounded=0;" parent="3H7HPgn0VHFLTJipVOY2-1" vertex="1">
          <mxGeometry x="613.23" y="165" width="145.92" height="30" as="geometry" />
        </mxCell>
        <mxCell id="DOnN0VtdtFe00satPa3--15" style="edgeStyle=orthogonalEdgeStyle;rounded=0;orthogonalLoop=1;jettySize=auto;html=1;exitX=0.5;exitY=1;exitDx=0;exitDy=0;entryX=0.5;entryY=0;entryDx=0;entryDy=0;" parent="3H7HPgn0VHFLTJipVOY2-1" source="EoMibZ9f0mw4u26t--qV-22" target="W_5d_hWZ6USkTGCVWUqq-15" edge="1">
          <mxGeometry relative="1" as="geometry" />
        </mxCell>
        <mxCell id="EoMibZ9f0mw4u26t--qV-22" value="" style="rounded=0;whiteSpace=wrap;html=1;" parent="3H7HPgn0VHFLTJipVOY2-1" vertex="1">
          <mxGeometry x="378.26" y="230" width="138.05" height="50" as="geometry" />
        </mxCell>
        <mxCell id="EoMibZ9f0mw4u26t--qV-23" value="&amp;nbsp;bubblesort(copy, n);" style="text;html=1;strokeColor=none;fillColor=none;align=center;verticalAlign=middle;whiteSpace=wrap;rounded=0;" parent="3H7HPgn0VHFLTJipVOY2-1" vertex="1">
          <mxGeometry x="382.29" y="240" width="130" height="30" as="geometry" />
        </mxCell>
        <mxCell id="DOnN0VtdtFe00satPa3--27" style="edgeStyle=orthogonalEdgeStyle;rounded=0;orthogonalLoop=1;jettySize=auto;html=1;exitX=0.5;exitY=1;exitDx=0;exitDy=0;entryX=0.5;entryY=0;entryDx=0;entryDy=0;" parent="3H7HPgn0VHFLTJipVOY2-1" source="EoMibZ9f0mw4u26t--qV-24" target="W_5d_hWZ6USkTGCVWUqq-22" edge="1">
          <mxGeometry relative="1" as="geometry" />
        </mxCell>
        <mxCell id="EoMibZ9f0mw4u26t--qV-24" value="" style="rounded=0;whiteSpace=wrap;html=1;" parent="3H7HPgn0VHFLTJipVOY2-1" vertex="1">
          <mxGeometry x="606.1800000000001" y="230" width="138.05" height="50" as="geometry" />
        </mxCell>
        <mxCell id="EoMibZ9f0mw4u26t--qV-25" value="&amp;nbsp;selectionsort(copy, n);" style="text;html=1;strokeColor=none;fillColor=none;align=center;verticalAlign=middle;whiteSpace=wrap;rounded=0;" parent="3H7HPgn0VHFLTJipVOY2-1" vertex="1">
          <mxGeometry x="610.21" y="240" width="130" height="30" as="geometry" />
        </mxCell>
        <mxCell id="DOnN0VtdtFe00satPa3--19" style="edgeStyle=orthogonalEdgeStyle;rounded=0;orthogonalLoop=1;jettySize=auto;html=1;exitX=0.5;exitY=1;exitDx=0;exitDy=0;entryX=0.5;entryY=0;entryDx=0;entryDy=0;" parent="3H7HPgn0VHFLTJipVOY2-1" source="W_5d_hWZ6USkTGCVWUqq-13" target="W_5d_hWZ6USkTGCVWUqq-24" edge="1">
          <mxGeometry relative="1" as="geometry" />
        </mxCell>
        <mxCell id="W_5d_hWZ6USkTGCVWUqq-13" value="" style="rhombus;whiteSpace=wrap;html=1;" parent="3H7HPgn0VHFLTJipVOY2-1" vertex="1">
          <mxGeometry x="371.15000000000003" y="360" width="152.25" height="80" as="geometry" />
        </mxCell>
        <mxCell id="W_5d_hWZ6USkTGCVWUqq-14" value="" style="rounded=0;whiteSpace=wrap;html=1;" parent="3H7HPgn0VHFLTJipVOY2-1" vertex="1">
          <mxGeometry x="391.04" y="295" width="112.5" height="40" as="geometry" />
        </mxCell>
        <mxCell id="W_5d_hWZ6USkTGCVWUqq-15" value="i = 0;" style="text;html=1;strokeColor=none;fillColor=none;align=center;verticalAlign=middle;whiteSpace=wrap;rounded=0;" parent="3H7HPgn0VHFLTJipVOY2-1" vertex="1">
          <mxGeometry x="417.29" y="300" width="60" height="30" as="geometry" />
        </mxCell>
        <mxCell id="W_5d_hWZ6USkTGCVWUqq-16" value="i &amp;lt; n" style="text;html=1;strokeColor=none;fillColor=none;align=center;verticalAlign=middle;whiteSpace=wrap;rounded=0;" parent="3H7HPgn0VHFLTJipVOY2-1" vertex="1">
          <mxGeometry x="417.27000000000004" y="385" width="60" height="30" as="geometry" />
        </mxCell>
        <mxCell id="DOnN0VtdtFe00satPa3--29" style="edgeStyle=orthogonalEdgeStyle;rounded=0;orthogonalLoop=1;jettySize=auto;html=1;exitX=0.5;exitY=1;exitDx=0;exitDy=0;entryX=0.5;entryY=0;entryDx=0;entryDy=0;" parent="3H7HPgn0VHFLTJipVOY2-1" source="W_5d_hWZ6USkTGCVWUqq-20" target="W_5d_hWZ6USkTGCVWUqq-26" edge="1">
          <mxGeometry relative="1" as="geometry" />
        </mxCell>
        <mxCell id="W_5d_hWZ6USkTGCVWUqq-20" value="" style="rhombus;whiteSpace=wrap;html=1;" parent="3H7HPgn0VHFLTJipVOY2-1" vertex="1">
          <mxGeometry x="596.97" y="360" width="152.25" height="80" as="geometry" />
        </mxCell>
        <mxCell id="DOnN0VtdtFe00satPa3--28" style="edgeStyle=orthogonalEdgeStyle;rounded=0;orthogonalLoop=1;jettySize=auto;html=1;exitX=0.5;exitY=1;exitDx=0;exitDy=0;entryX=0.5;entryY=0;entryDx=0;entryDy=0;" parent="3H7HPgn0VHFLTJipVOY2-1" source="W_5d_hWZ6USkTGCVWUqq-21" target="W_5d_hWZ6USkTGCVWUqq-20" edge="1">
          <mxGeometry relative="1" as="geometry" />
        </mxCell>
        <mxCell id="W_5d_hWZ6USkTGCVWUqq-21" value="" style="rounded=0;whiteSpace=wrap;html=1;" parent="3H7HPgn0VHFLTJipVOY2-1" vertex="1">
          <mxGeometry x="619.59" y="295" width="112.5" height="40" as="geometry" />
        </mxCell>
        <mxCell id="W_5d_hWZ6USkTGCVWUqq-22" value="i = 0;" style="text;html=1;strokeColor=none;fillColor=none;align=center;verticalAlign=middle;whiteSpace=wrap;rounded=0;" parent="3H7HPgn0VHFLTJipVOY2-1" vertex="1">
          <mxGeometry x="645.84" y="300" width="60" height="30" as="geometry" />
        </mxCell>
        <mxCell id="W_5d_hWZ6USkTGCVWUqq-23" value="i &amp;lt; n" style="text;html=1;strokeColor=none;fillColor=none;align=center;verticalAlign=middle;whiteSpace=wrap;rounded=0;" parent="3H7HPgn0VHFLTJipVOY2-1" vertex="1">
          <mxGeometry x="643.09" y="385" width="60" height="30" as="geometry" />
        </mxCell>
        <mxCell id="DOnN0VtdtFe00satPa3--20" style="edgeStyle=orthogonalEdgeStyle;rounded=0;orthogonalLoop=1;jettySize=auto;html=1;exitX=0.5;exitY=1;exitDx=0;exitDy=0;entryX=0.5;entryY=0;entryDx=0;entryDy=0;" parent="3H7HPgn0VHFLTJipVOY2-1" source="W_5d_hWZ6USkTGCVWUqq-24" target="W_5d_hWZ6USkTGCVWUqq-28" edge="1">
          <mxGeometry relative="1" as="geometry" />
        </mxCell>
        <mxCell id="W_5d_hWZ6USkTGCVWUqq-24" value="" style="shape=parallelogram;perimeter=parallelogramPerimeter;whiteSpace=wrap;html=1;fixedSize=1;" parent="3H7HPgn0VHFLTJipVOY2-1" vertex="1">
          <mxGeometry x="360.56" y="465" width="172.12" height="60" as="geometry" />
        </mxCell>
        <mxCell id="W_5d_hWZ6USkTGCVWUqq-25" value="&amp;nbsp;printf(&quot;%d&amp;nbsp; &quot;, copy[i]);" style="text;html=1;strokeColor=none;fillColor=none;align=center;verticalAlign=middle;whiteSpace=wrap;rounded=0;" parent="3H7HPgn0VHFLTJipVOY2-1" vertex="1">
          <mxGeometry x="380.56" y="480" width="132.12" height="30" as="geometry" />
        </mxCell>
        <mxCell id="DOnN0VtdtFe00satPa3--31" style="edgeStyle=orthogonalEdgeStyle;rounded=0;orthogonalLoop=1;jettySize=auto;html=1;exitX=0.5;exitY=1;exitDx=0;exitDy=0;entryX=0.5;entryY=0;entryDx=0;entryDy=0;" parent="3H7HPgn0VHFLTJipVOY2-1" source="W_5d_hWZ6USkTGCVWUqq-26" target="W_5d_hWZ6USkTGCVWUqq-33" edge="1">
          <mxGeometry relative="1" as="geometry" />
        </mxCell>
        <mxCell id="W_5d_hWZ6USkTGCVWUqq-26" value="" style="shape=parallelogram;perimeter=parallelogramPerimeter;whiteSpace=wrap;html=1;fixedSize=1;" parent="3H7HPgn0VHFLTJipVOY2-1" vertex="1">
          <mxGeometry x="587.03" y="465" width="172.12" height="60" as="geometry" />
        </mxCell>
        <mxCell id="W_5d_hWZ6USkTGCVWUqq-27" value="&amp;nbsp;printf(&quot;%d&amp;nbsp; &quot;, A[i]);" style="text;html=1;strokeColor=none;fillColor=none;align=center;verticalAlign=middle;whiteSpace=wrap;rounded=0;" parent="3H7HPgn0VHFLTJipVOY2-1" vertex="1">
          <mxGeometry x="607.03" y="480" width="132.12" height="30" as="geometry" />
        </mxCell>
        <mxCell id="DOnN0VtdtFe00satPa3--23" style="edgeStyle=orthogonalEdgeStyle;rounded=0;orthogonalLoop=1;jettySize=auto;html=1;exitX=0;exitY=0.5;exitDx=0;exitDy=0;" parent="3H7HPgn0VHFLTJipVOY2-1" source="W_5d_hWZ6USkTGCVWUqq-28" edge="1">
          <mxGeometry relative="1" as="geometry">
            <mxPoint x="447" y="350" as="targetPoint" />
            <Array as="points">
              <mxPoint x="350" y="575" />
              <mxPoint x="350" y="350" />
            </Array>
          </mxGeometry>
        </mxCell>
        <mxCell id="W_5d_hWZ6USkTGCVWUqq-28" value="" style="rounded=0;whiteSpace=wrap;html=1;" parent="3H7HPgn0VHFLTJipVOY2-1" vertex="1">
          <mxGeometry x="392.78000000000003" y="555" width="109.02" height="40" as="geometry" />
        </mxCell>
        <mxCell id="W_5d_hWZ6USkTGCVWUqq-29" value="i++;" style="text;html=1;strokeColor=none;fillColor=none;align=center;verticalAlign=middle;whiteSpace=wrap;rounded=0;" parent="3H7HPgn0VHFLTJipVOY2-1" vertex="1">
          <mxGeometry x="417.29" y="560" width="60" height="30" as="geometry" />
        </mxCell>
        <mxCell id="DOnN0VtdtFe00satPa3--32" style="edgeStyle=orthogonalEdgeStyle;rounded=0;orthogonalLoop=1;jettySize=auto;html=1;exitX=1;exitY=0.5;exitDx=0;exitDy=0;" parent="3H7HPgn0VHFLTJipVOY2-1" source="W_5d_hWZ6USkTGCVWUqq-33" edge="1">
          <mxGeometry relative="1" as="geometry">
            <mxPoint x="670" y="340" as="targetPoint" />
            <Array as="points">
              <mxPoint x="780" y="575" />
              <mxPoint x="780" y="340" />
            </Array>
          </mxGeometry>
        </mxCell>
        <mxCell id="W_5d_hWZ6USkTGCVWUqq-33" value="" style="rounded=0;whiteSpace=wrap;html=1;" parent="3H7HPgn0VHFLTJipVOY2-1" vertex="1">
          <mxGeometry x="614.08" y="555" width="109.02" height="40" as="geometry" />
        </mxCell>
        <mxCell id="W_5d_hWZ6USkTGCVWUqq-34" value="i++;" style="text;html=1;strokeColor=none;fillColor=none;align=center;verticalAlign=middle;whiteSpace=wrap;rounded=0;" parent="3H7HPgn0VHFLTJipVOY2-1" vertex="1">
          <mxGeometry x="638.59" y="560" width="60" height="30" as="geometry" />
        </mxCell>
        <mxCell id="W_5d_hWZ6USkTGCVWUqq-51" style="edgeStyle=orthogonalEdgeStyle;rounded=0;orthogonalLoop=1;jettySize=auto;html=1;exitX=0.5;exitY=1;exitDx=0;exitDy=0;entryX=0.541;entryY=0.03;entryDx=0;entryDy=0;entryPerimeter=0;" parent="3H7HPgn0VHFLTJipVOY2-1" source="EoMibZ9f0mw4u26t--qV-2" target="EoMibZ9f0mw4u26t--qV-6" edge="1">
          <mxGeometry relative="1" as="geometry" />
        </mxCell>
        <mxCell id="DOnN0VtdtFe00satPa3--0" value="&lt;font style=&quot;font-size: 16px;&quot;&gt;Yes&lt;/font&gt;" style="text;html=1;strokeColor=none;fillColor=none;align=center;verticalAlign=middle;whiteSpace=wrap;rounded=0;" parent="3H7HPgn0VHFLTJipVOY2-1" vertex="1">
          <mxGeometry x="120" y="360" width="60" height="30" as="geometry" />
        </mxCell>
        <mxCell id="DOnN0VtdtFe00satPa3--2" style="edgeStyle=orthogonalEdgeStyle;rounded=0;orthogonalLoop=1;jettySize=auto;html=1;exitX=0.5;exitY=1;exitDx=0;exitDy=0;entryX=0.392;entryY=0.017;entryDx=0;entryDy=0;entryPerimeter=0;" parent="3H7HPgn0VHFLTJipVOY2-1" source="EoMibZ9f0mw4u26t--qV-6" target="EoMibZ9f0mw4u26t--qV-8" edge="1">
          <mxGeometry relative="1" as="geometry" />
        </mxCell>
        <mxCell id="DOnN0VtdtFe00satPa3--5" value="&lt;font style=&quot;font-size: 16px;&quot;&gt;No&lt;/font&gt;" style="text;html=1;strokeColor=none;fillColor=none;align=center;verticalAlign=middle;whiteSpace=wrap;rounded=0;" parent="3H7HPgn0VHFLTJipVOY2-1" vertex="1">
          <mxGeometry x="227.06" y="300" width="60" height="30" as="geometry" />
        </mxCell>
        <mxCell id="DOnN0VtdtFe00satPa3--8" style="edgeStyle=orthogonalEdgeStyle;rounded=0;orthogonalLoop=1;jettySize=auto;html=1;exitX=1;exitY=0.5;exitDx=0;exitDy=0;entryX=0.583;entryY=-0.011;entryDx=0;entryDy=0;entryPerimeter=0;" parent="3H7HPgn0VHFLTJipVOY2-1" source="EoMibZ9f0mw4u26t--qV-16" target="EoMibZ9f0mw4u26t--qV-19" edge="1">
          <mxGeometry relative="1" as="geometry" />
        </mxCell>
        <mxCell id="DOnN0VtdtFe00satPa3--9" value="&lt;font style=&quot;font-size: 16px;&quot;&gt;Yes&lt;/font&gt;" style="text;html=1;strokeColor=none;fillColor=none;align=center;verticalAlign=middle;whiteSpace=wrap;rounded=0;" parent="3H7HPgn0VHFLTJipVOY2-1" vertex="1">
          <mxGeometry x="445.08" y="65" width="60" height="30" as="geometry" />
        </mxCell>
        <mxCell id="DOnN0VtdtFe00satPa3--10" value="&lt;span style=&quot;color: rgb(0, 0, 0); font-family: Helvetica; font-size: 16px; font-style: normal; font-variant-ligatures: normal; font-variant-caps: normal; font-weight: 400; letter-spacing: normal; orphans: 2; text-align: center; text-indent: 0px; text-transform: none; widows: 2; word-spacing: 0px; -webkit-text-stroke-width: 0px; background-color: rgb(251, 251, 251); text-decoration-thickness: initial; text-decoration-style: initial; text-decoration-color: initial; float: none; display: inline !important;&quot;&gt;No&lt;/span&gt;" style="text;whiteSpace=wrap;html=1;" parent="3H7HPgn0VHFLTJipVOY2-1" vertex="1">
          <mxGeometry x="650.14" y="60" width="60" height="40" as="geometry" />
        </mxCell>
        <mxCell id="DOnN0VtdtFe00satPa3--18" value="" style="endArrow=classic;html=1;rounded=0;exitX=0.5;exitY=1;exitDx=0;exitDy=0;entryX=0.5;entryY=0;entryDx=0;entryDy=0;" parent="3H7HPgn0VHFLTJipVOY2-1" source="W_5d_hWZ6USkTGCVWUqq-15" target="W_5d_hWZ6USkTGCVWUqq-13" edge="1">
          <mxGeometry width="50" height="50" relative="1" as="geometry">
            <mxPoint x="550" y="360" as="sourcePoint" />
            <mxPoint x="600" y="310" as="targetPoint" />
          </mxGeometry>
        </mxCell>
        <mxCell id="DOnN0VtdtFe00satPa3--22" value="&lt;font style=&quot;font-size: 16px;&quot;&gt;Yes&lt;/font&gt;" style="text;html=1;strokeColor=none;fillColor=none;align=center;verticalAlign=middle;whiteSpace=wrap;rounded=0;" parent="3H7HPgn0VHFLTJipVOY2-1" vertex="1">
          <mxGeometry x="392.78" y="435" width="60" height="30" as="geometry" />
        </mxCell>
        <mxCell id="DOnN0VtdtFe00satPa3--24" style="edgeStyle=orthogonalEdgeStyle;rounded=0;orthogonalLoop=1;jettySize=auto;html=1;exitX=1;exitY=0.5;exitDx=0;exitDy=0;entryX=0.391;entryY=0.004;entryDx=0;entryDy=0;entryPerimeter=0;" parent="3H7HPgn0VHFLTJipVOY2-1" source="W_5d_hWZ6USkTGCVWUqq-13" target="3H7HPgn0VHFLTJipVOY2-4" edge="1">
          <mxGeometry relative="1" as="geometry" />
        </mxCell>
        <mxCell id="DOnN0VtdtFe00satPa3--25" value="&lt;font style=&quot;font-size: 16px;&quot;&gt;No&lt;/font&gt;" style="text;html=1;strokeColor=none;fillColor=none;align=center;verticalAlign=middle;whiteSpace=wrap;rounded=0;" parent="3H7HPgn0VHFLTJipVOY2-1" vertex="1">
          <mxGeometry x="493.84" y="370" width="60" height="30" as="geometry" />
        </mxCell>
        <mxCell id="DOnN0VtdtFe00satPa3--30" value="&lt;font style=&quot;font-size: 16px;&quot;&gt;Yes&lt;/font&gt;" style="text;html=1;strokeColor=none;fillColor=none;align=center;verticalAlign=middle;whiteSpace=wrap;rounded=0;" parent="3H7HPgn0VHFLTJipVOY2-1" vertex="1">
          <mxGeometry x="621.3399999999999" y="435" width="60" height="30" as="geometry" />
        </mxCell>
        <mxCell id="DOnN0VtdtFe00satPa3--34" style="edgeStyle=orthogonalEdgeStyle;rounded=0;orthogonalLoop=1;jettySize=auto;html=1;exitX=0;exitY=0.5;exitDx=0;exitDy=0;entryX=0.628;entryY=0.017;entryDx=0;entryDy=0;entryPerimeter=0;" parent="3H7HPgn0VHFLTJipVOY2-1" source="W_5d_hWZ6USkTGCVWUqq-20" target="3H7HPgn0VHFLTJipVOY2-4" edge="1">
          <mxGeometry relative="1" as="geometry" />
        </mxCell>
        <mxCell id="DOnN0VtdtFe00satPa3--35" value="&lt;font style=&quot;font-size: 16px;&quot;&gt;No&lt;/font&gt;" style="text;html=1;strokeColor=none;fillColor=none;align=center;verticalAlign=middle;whiteSpace=wrap;rounded=0;" parent="3H7HPgn0VHFLTJipVOY2-1" vertex="1">
          <mxGeometry x="554.0799999999999" y="370" width="60" height="30" as="geometry" />
        </mxCell>
      </root>
    </mxGraphModel>
  </diagram>
  <diagram name="insertion" id="6vgh1wFbQBPd_Mof-mFq">
    <mxGraphModel dx="1235" dy="624" grid="1" gridSize="10" guides="1" tooltips="1" connect="1" arrows="1" fold="1" page="1" pageScale="1" pageWidth="827" pageHeight="1169" math="0" shadow="0">
      <root>
        <mxCell id="7gjzkaAaoPouEP9qeejb-0" />
        <mxCell id="7gjzkaAaoPouEP9qeejb-1" parent="7gjzkaAaoPouEP9qeejb-0" />
        <mxCell id="7gjzkaAaoPouEP9qeejb-2" style="edgeStyle=orthogonalEdgeStyle;rounded=0;orthogonalLoop=1;jettySize=auto;html=1;exitX=0.5;exitY=1;exitDx=0;exitDy=0;entryX=0.5;entryY=0;entryDx=0;entryDy=0;" parent="7gjzkaAaoPouEP9qeejb-1" source="7gjzkaAaoPouEP9qeejb-3" target="7gjzkaAaoPouEP9qeejb-13" edge="1">
          <mxGeometry relative="1" as="geometry" />
        </mxCell>
        <mxCell id="7gjzkaAaoPouEP9qeejb-3" value="" style="ellipse;whiteSpace=wrap;html=1;" parent="7gjzkaAaoPouEP9qeejb-1" vertex="1">
          <mxGeometry x="321.5" y="10" width="125" height="60" as="geometry" />
        </mxCell>
        <mxCell id="7gjzkaAaoPouEP9qeejb-4" value="" style="ellipse;whiteSpace=wrap;html=1;" parent="7gjzkaAaoPouEP9qeejb-1" vertex="1">
          <mxGeometry x="320.25" y="960" width="127.5" height="65" as="geometry" />
        </mxCell>
        <mxCell id="7gjzkaAaoPouEP9qeejb-5" style="edgeStyle=orthogonalEdgeStyle;rounded=0;orthogonalLoop=1;jettySize=auto;html=1;exitX=1;exitY=0.5;exitDx=0;exitDy=0;entryX=1;entryY=0.5;entryDx=0;entryDy=0;" parent="7gjzkaAaoPouEP9qeejb-1" source="7gjzkaAaoPouEP9qeejb-7" target="7gjzkaAaoPouEP9qeejb-4" edge="1">
          <mxGeometry relative="1" as="geometry">
            <mxPoint x="480" y="1030" as="targetPoint" />
            <Array as="points">
              <mxPoint x="580" y="215" />
              <mxPoint x="580" y="993" />
            </Array>
          </mxGeometry>
        </mxCell>
        <mxCell id="7gjzkaAaoPouEP9qeejb-6" style="edgeStyle=orthogonalEdgeStyle;rounded=0;orthogonalLoop=1;jettySize=auto;html=1;exitX=0.5;exitY=1;exitDx=0;exitDy=0;entryX=0.5;entryY=0;entryDx=0;entryDy=0;" parent="7gjzkaAaoPouEP9qeejb-1" source="7gjzkaAaoPouEP9qeejb-7" target="7gjzkaAaoPouEP9qeejb-15" edge="1">
          <mxGeometry relative="1" as="geometry" />
        </mxCell>
        <mxCell id="7gjzkaAaoPouEP9qeejb-7" value="" style="rhombus;whiteSpace=wrap;html=1;" parent="7gjzkaAaoPouEP9qeejb-1" vertex="1">
          <mxGeometry x="319" y="175" width="130" height="80" as="geometry" />
        </mxCell>
        <mxCell id="7gjzkaAaoPouEP9qeejb-8" value="&lt;font style=&quot;font-size: 21px;&quot;&gt;Start&lt;/font&gt;" style="text;html=1;strokeColor=none;fillColor=none;align=center;verticalAlign=middle;whiteSpace=wrap;rounded=0;" parent="7gjzkaAaoPouEP9qeejb-1" vertex="1">
          <mxGeometry x="354" y="25" width="60" height="30" as="geometry" />
        </mxCell>
        <mxCell id="7gjzkaAaoPouEP9qeejb-9" value="&lt;font style=&quot;font-size: 21px;&quot;&gt;Stop&lt;/font&gt;" style="text;html=1;strokeColor=none;fillColor=none;align=center;verticalAlign=middle;whiteSpace=wrap;rounded=0;" parent="7gjzkaAaoPouEP9qeejb-1" vertex="1">
          <mxGeometry x="354" y="977.5" width="60" height="30" as="geometry" />
        </mxCell>
        <mxCell id="7gjzkaAaoPouEP9qeejb-10" value="&lt;font style=&quot;font-size: 16px;&quot;&gt;Yes&lt;/font&gt;" style="text;html=1;strokeColor=none;fillColor=none;align=center;verticalAlign=middle;whiteSpace=wrap;rounded=0;" parent="7gjzkaAaoPouEP9qeejb-1" vertex="1">
          <mxGeometry x="340" y="250" width="60" height="30" as="geometry" />
        </mxCell>
        <mxCell id="7gjzkaAaoPouEP9qeejb-11" value="&lt;font style=&quot;font-size: 16px;&quot;&gt;No&lt;/font&gt;" style="text;html=1;strokeColor=none;fillColor=none;align=center;verticalAlign=middle;whiteSpace=wrap;rounded=0;" parent="7gjzkaAaoPouEP9qeejb-1" vertex="1">
          <mxGeometry x="480" y="190" width="60" height="30" as="geometry" />
        </mxCell>
        <mxCell id="7gjzkaAaoPouEP9qeejb-12" style="edgeStyle=orthogonalEdgeStyle;rounded=0;orthogonalLoop=1;jettySize=auto;html=1;exitX=0.5;exitY=1;exitDx=0;exitDy=0;entryX=0.5;entryY=0;entryDx=0;entryDy=0;" parent="7gjzkaAaoPouEP9qeejb-1" source="7gjzkaAaoPouEP9qeejb-13" target="7gjzkaAaoPouEP9qeejb-7" edge="1">
          <mxGeometry relative="1" as="geometry" />
        </mxCell>
        <mxCell id="7gjzkaAaoPouEP9qeejb-13" value="" style="rounded=0;whiteSpace=wrap;html=1;" parent="7gjzkaAaoPouEP9qeejb-1" vertex="1">
          <mxGeometry x="327.75" y="100" width="112.5" height="40" as="geometry" />
        </mxCell>
        <mxCell id="7gjzkaAaoPouEP9qeejb-14" style="edgeStyle=orthogonalEdgeStyle;rounded=0;orthogonalLoop=1;jettySize=auto;html=1;exitX=0.5;exitY=1;exitDx=0;exitDy=0;entryX=0.5;entryY=0;entryDx=0;entryDy=0;" parent="7gjzkaAaoPouEP9qeejb-1" source="7gjzkaAaoPouEP9qeejb-15" target="7gjzkaAaoPouEP9qeejb-41" edge="1">
          <mxGeometry relative="1" as="geometry" />
        </mxCell>
        <mxCell id="7gjzkaAaoPouEP9qeejb-15" value="" style="rounded=0;whiteSpace=wrap;html=1;" parent="7gjzkaAaoPouEP9qeejb-1" vertex="1">
          <mxGeometry x="327.75" y="280" width="112.5" height="40" as="geometry" />
        </mxCell>
        <mxCell id="7gjzkaAaoPouEP9qeejb-16" style="edgeStyle=orthogonalEdgeStyle;rounded=0;orthogonalLoop=1;jettySize=auto;html=1;exitX=0.5;exitY=1;exitDx=0;exitDy=0;entryX=0.5;entryY=0;entryDx=0;entryDy=0;" parent="7gjzkaAaoPouEP9qeejb-1" source="7gjzkaAaoPouEP9qeejb-18" target="7gjzkaAaoPouEP9qeejb-24" edge="1">
          <mxGeometry relative="1" as="geometry">
            <mxPoint x="377.5" y="565" as="targetPoint" />
          </mxGeometry>
        </mxCell>
        <mxCell id="7gjzkaAaoPouEP9qeejb-17" style="edgeStyle=orthogonalEdgeStyle;rounded=0;orthogonalLoop=1;jettySize=auto;html=1;exitX=1;exitY=0.5;exitDx=0;exitDy=0;entryX=0.976;entryY=0.625;entryDx=0;entryDy=0;entryPerimeter=0;" parent="7gjzkaAaoPouEP9qeejb-1" source="7gjzkaAaoPouEP9qeejb-18" target="7gjzkaAaoPouEP9qeejb-33" edge="1">
          <mxGeometry relative="1" as="geometry">
            <mxPoint x="453.75" y="895" as="targetPoint" />
            <Array as="points">
              <mxPoint x="540" y="470" />
              <mxPoint x="540" y="895" />
            </Array>
          </mxGeometry>
        </mxCell>
        <mxCell id="7gjzkaAaoPouEP9qeejb-18" value="" style="rhombus;whiteSpace=wrap;html=1;" parent="7gjzkaAaoPouEP9qeejb-1" vertex="1">
          <mxGeometry x="321.25" y="430" width="130" height="80" as="geometry" />
        </mxCell>
        <mxCell id="7gjzkaAaoPouEP9qeejb-19" value="i = 1;" style="text;html=1;strokeColor=none;fillColor=none;align=center;verticalAlign=middle;whiteSpace=wrap;rounded=0;" parent="7gjzkaAaoPouEP9qeejb-1" vertex="1">
          <mxGeometry x="354" y="105" width="60" height="30" as="geometry" />
        </mxCell>
        <mxCell id="7gjzkaAaoPouEP9qeejb-20" value="&lt;font style=&quot;font-size: 14px;&quot;&gt;i &amp;lt; n&lt;/font&gt;" style="text;html=1;strokeColor=none;fillColor=none;align=center;verticalAlign=middle;whiteSpace=wrap;rounded=0;" parent="7gjzkaAaoPouEP9qeejb-1" vertex="1">
          <mxGeometry x="356.5" y="200" width="60" height="30" as="geometry" />
        </mxCell>
        <mxCell id="7gjzkaAaoPouEP9qeejb-21" value="&lt;font style=&quot;font-size: 14px;&quot;&gt;t=*(array+i);&lt;/font&gt;" style="text;html=1;strokeColor=none;fillColor=none;align=center;verticalAlign=middle;whiteSpace=wrap;rounded=0;" parent="7gjzkaAaoPouEP9qeejb-1" vertex="1">
          <mxGeometry x="342.75" y="285" width="82.5" height="30" as="geometry" />
        </mxCell>
        <mxCell id="7gjzkaAaoPouEP9qeejb-22" value="&lt;font style=&quot;font-size: 14px;&quot;&gt;j &amp;gt;= 0&lt;/font&gt;" style="text;html=1;strokeColor=none;fillColor=none;align=center;verticalAlign=middle;whiteSpace=wrap;rounded=0;" parent="7gjzkaAaoPouEP9qeejb-1" vertex="1">
          <mxGeometry x="354" y="455" width="60" height="30" as="geometry" />
        </mxCell>
        <mxCell id="7gjzkaAaoPouEP9qeejb-23" style="edgeStyle=orthogonalEdgeStyle;rounded=0;orthogonalLoop=1;jettySize=auto;html=1;exitX=0.5;exitY=1;exitDx=0;exitDy=0;entryX=0.5;entryY=0;entryDx=0;entryDy=0;" parent="7gjzkaAaoPouEP9qeejb-1" source="7gjzkaAaoPouEP9qeejb-24" target="7gjzkaAaoPouEP9qeejb-28" edge="1">
          <mxGeometry relative="1" as="geometry" />
        </mxCell>
        <mxCell id="7gjzkaAaoPouEP9qeejb-24" value="" style="rhombus;whiteSpace=wrap;html=1;" parent="7gjzkaAaoPouEP9qeejb-1" vertex="1">
          <mxGeometry x="321.25" y="570" width="130" height="80" as="geometry" />
        </mxCell>
        <mxCell id="7gjzkaAaoPouEP9qeejb-25" style="edgeStyle=orthogonalEdgeStyle;rounded=0;orthogonalLoop=1;jettySize=auto;html=1;exitX=1;exitY=0.5;exitDx=0;exitDy=0;" parent="7gjzkaAaoPouEP9qeejb-1" source="7gjzkaAaoPouEP9qeejb-26" edge="1">
          <mxGeometry relative="1" as="geometry">
            <mxPoint x="389" y="780" as="targetPoint" />
            <Array as="points">
              <mxPoint x="500" y="610" />
              <mxPoint x="500" y="780" />
            </Array>
          </mxGeometry>
        </mxCell>
        <mxCell id="7gjzkaAaoPouEP9qeejb-26" value="&lt;font style=&quot;font-size: 14px;&quot;&gt;t &amp;gt; *(array+j)&lt;/font&gt;" style="text;html=1;strokeColor=none;fillColor=none;align=center;verticalAlign=middle;whiteSpace=wrap;rounded=0;" parent="7gjzkaAaoPouEP9qeejb-1" vertex="1">
          <mxGeometry x="332.5" y="595" width="112.5" height="30" as="geometry" />
        </mxCell>
        <mxCell id="7gjzkaAaoPouEP9qeejb-27" style="edgeStyle=orthogonalEdgeStyle;rounded=0;orthogonalLoop=1;jettySize=auto;html=1;exitX=0.5;exitY=1;exitDx=0;exitDy=0;entryX=0.5;entryY=0;entryDx=0;entryDy=0;" parent="7gjzkaAaoPouEP9qeejb-1" source="7gjzkaAaoPouEP9qeejb-28" target="7gjzkaAaoPouEP9qeejb-37" edge="1">
          <mxGeometry relative="1" as="geometry" />
        </mxCell>
        <mxCell id="7gjzkaAaoPouEP9qeejb-28" value="" style="rounded=0;whiteSpace=wrap;html=1;" parent="7gjzkaAaoPouEP9qeejb-1" vertex="1">
          <mxGeometry x="301.25" y="700" width="170" height="70" as="geometry" />
        </mxCell>
        <mxCell id="7gjzkaAaoPouEP9qeejb-29" value="&lt;font style=&quot;font-size: 14px;&quot;&gt;*(array+j+1)=*(array+j);&lt;br&gt;*(array+j) = t;&lt;/font&gt;" style="text;html=1;strokeColor=none;fillColor=none;align=center;verticalAlign=middle;whiteSpace=wrap;rounded=0;" parent="7gjzkaAaoPouEP9qeejb-1" vertex="1">
          <mxGeometry x="313.25" y="722.5" width="151" height="25" as="geometry" />
        </mxCell>
        <mxCell id="7gjzkaAaoPouEP9qeejb-30" value="&lt;font style=&quot;font-size: 16px;&quot;&gt;Yes&lt;/font&gt;" style="text;html=1;strokeColor=none;fillColor=none;align=center;verticalAlign=middle;whiteSpace=wrap;rounded=0;" parent="7gjzkaAaoPouEP9qeejb-1" vertex="1">
          <mxGeometry x="323.75" y="520" width="60" height="30" as="geometry" />
        </mxCell>
        <mxCell id="7gjzkaAaoPouEP9qeejb-31" value="&lt;font style=&quot;font-size: 16px;&quot;&gt;Yes&lt;/font&gt;" style="text;html=1;strokeColor=none;fillColor=none;align=center;verticalAlign=middle;whiteSpace=wrap;rounded=0;" parent="7gjzkaAaoPouEP9qeejb-1" vertex="1">
          <mxGeometry x="323.75" y="650" width="60" height="30" as="geometry" />
        </mxCell>
        <mxCell id="7gjzkaAaoPouEP9qeejb-32" style="edgeStyle=orthogonalEdgeStyle;rounded=0;orthogonalLoop=1;jettySize=auto;html=1;exitX=0;exitY=0.5;exitDx=0;exitDy=0;" parent="7gjzkaAaoPouEP9qeejb-1" source="7gjzkaAaoPouEP9qeejb-33" edge="1">
          <mxGeometry relative="1" as="geometry">
            <mxPoint x="390" y="160" as="targetPoint" />
            <Array as="points">
              <mxPoint x="200" y="890" />
              <mxPoint x="200" y="160" />
            </Array>
          </mxGeometry>
        </mxCell>
        <mxCell id="7gjzkaAaoPouEP9qeejb-33" value="&lt;br&gt;" style="rounded=0;whiteSpace=wrap;html=1;" parent="7gjzkaAaoPouEP9qeejb-1" vertex="1">
          <mxGeometry x="330.25" y="870" width="112.5" height="40" as="geometry" />
        </mxCell>
        <mxCell id="7gjzkaAaoPouEP9qeejb-34" value="&lt;font style=&quot;font-size: 14px;&quot;&gt;i++;&lt;/font&gt;" style="text;html=1;strokeColor=none;fillColor=none;align=center;verticalAlign=middle;whiteSpace=wrap;rounded=0;" parent="7gjzkaAaoPouEP9qeejb-1" vertex="1">
          <mxGeometry x="354" y="875" width="60" height="30" as="geometry" />
        </mxCell>
        <mxCell id="7gjzkaAaoPouEP9qeejb-35" value="&lt;font style=&quot;font-size: 16px;&quot;&gt;No&lt;/font&gt;" style="text;html=1;strokeColor=none;fillColor=none;align=center;verticalAlign=middle;whiteSpace=wrap;rounded=0;" parent="7gjzkaAaoPouEP9qeejb-1" vertex="1">
          <mxGeometry x="442.5" y="440" width="60" height="30" as="geometry" />
        </mxCell>
        <mxCell id="7gjzkaAaoPouEP9qeejb-36" style="edgeStyle=orthogonalEdgeStyle;rounded=0;orthogonalLoop=1;jettySize=auto;html=1;exitX=0;exitY=0.5;exitDx=0;exitDy=0;" parent="7gjzkaAaoPouEP9qeejb-1" source="7gjzkaAaoPouEP9qeejb-37" edge="1">
          <mxGeometry relative="1" as="geometry">
            <mxPoint x="387" y="420" as="targetPoint" />
            <Array as="points">
              <mxPoint x="240" y="820" />
              <mxPoint x="240" y="420" />
              <mxPoint x="310" y="420" />
            </Array>
          </mxGeometry>
        </mxCell>
        <mxCell id="7gjzkaAaoPouEP9qeejb-37" value="&lt;br&gt;" style="rounded=0;whiteSpace=wrap;html=1;" parent="7gjzkaAaoPouEP9qeejb-1" vertex="1">
          <mxGeometry x="330.25" y="800" width="112.5" height="40" as="geometry" />
        </mxCell>
        <mxCell id="7gjzkaAaoPouEP9qeejb-38" value="&lt;font style=&quot;font-size: 15px;&quot;&gt;j--;&lt;/font&gt;" style="text;html=1;strokeColor=none;fillColor=none;align=center;verticalAlign=middle;whiteSpace=wrap;rounded=0;" parent="7gjzkaAaoPouEP9qeejb-1" vertex="1">
          <mxGeometry x="354" y="805" width="60" height="30" as="geometry" />
        </mxCell>
        <mxCell id="7gjzkaAaoPouEP9qeejb-39" value="&lt;font style=&quot;font-size: 16px;&quot;&gt;No&lt;/font&gt;" style="text;html=1;strokeColor=none;fillColor=none;align=center;verticalAlign=middle;whiteSpace=wrap;rounded=0;" parent="7gjzkaAaoPouEP9qeejb-1" vertex="1">
          <mxGeometry x="436.25" y="580" width="60" height="30" as="geometry" />
        </mxCell>
        <mxCell id="7gjzkaAaoPouEP9qeejb-40" style="edgeStyle=orthogonalEdgeStyle;rounded=0;orthogonalLoop=1;jettySize=auto;html=1;exitX=0.5;exitY=1;exitDx=0;exitDy=0;entryX=0.5;entryY=0;entryDx=0;entryDy=0;" parent="7gjzkaAaoPouEP9qeejb-1" source="7gjzkaAaoPouEP9qeejb-41" target="7gjzkaAaoPouEP9qeejb-18" edge="1">
          <mxGeometry relative="1" as="geometry" />
        </mxCell>
        <mxCell id="7gjzkaAaoPouEP9qeejb-41" value="" style="rounded=0;whiteSpace=wrap;html=1;" parent="7gjzkaAaoPouEP9qeejb-1" vertex="1">
          <mxGeometry x="330" y="350" width="112.5" height="40" as="geometry" />
        </mxCell>
        <mxCell id="7gjzkaAaoPouEP9qeejb-42" value="&lt;font style=&quot;font-size: 14px;&quot;&gt;j = i-1;&lt;/font&gt;" style="text;html=1;strokeColor=none;fillColor=none;align=center;verticalAlign=middle;whiteSpace=wrap;rounded=0;" parent="7gjzkaAaoPouEP9qeejb-1" vertex="1">
          <mxGeometry x="356.25" y="355" width="60" height="30" as="geometry" />
        </mxCell>
      </root>
    </mxGraphModel>
  </diagram>
  <diagram name="checksums" id="4WgNF8KXe54p-7F7nkcc">
    <mxGraphModel dx="1358" dy="1727" grid="1" gridSize="10" guides="1" tooltips="1" connect="1" arrows="1" fold="1" page="1" pageScale="1" pageWidth="827" pageHeight="1169" math="0" shadow="0">
      <root>
        <mxCell id="aWlaW6ESdy03ouFaPt-Z-0" />
        <mxCell id="aWlaW6ESdy03ouFaPt-Z-1" parent="aWlaW6ESdy03ouFaPt-Z-0" />
        <mxCell id="vMz3USnpQMWJAtwqPLA3-16" style="edgeStyle=orthogonalEdgeStyle;rounded=0;orthogonalLoop=1;jettySize=auto;html=1;exitX=0.5;exitY=1;exitDx=0;exitDy=0;entryX=0.5;entryY=0;entryDx=0;entryDy=0;" edge="1" parent="aWlaW6ESdy03ouFaPt-Z-1" source="aWlaW6ESdy03ouFaPt-Z-2" target="vMz3USnpQMWJAtwqPLA3-0">
          <mxGeometry relative="1" as="geometry" />
        </mxCell>
        <mxCell id="aWlaW6ESdy03ouFaPt-Z-2" value="" style="ellipse;whiteSpace=wrap;html=1;" vertex="1" parent="aWlaW6ESdy03ouFaPt-Z-1">
          <mxGeometry x="312.5" y="-120" width="125" height="60" as="geometry" />
        </mxCell>
        <mxCell id="vMz3USnpQMWJAtwqPLA3-19" style="edgeStyle=orthogonalEdgeStyle;rounded=0;orthogonalLoop=1;jettySize=auto;html=1;exitX=0;exitY=0.5;exitDx=0;exitDy=0;entryX=0.5;entryY=0;entryDx=0;entryDy=0;" edge="1" parent="aWlaW6ESdy03ouFaPt-Z-1" source="aWlaW6ESdy03ouFaPt-Z-4" target="vMz3USnpQMWJAtwqPLA3-4">
          <mxGeometry relative="1" as="geometry" />
        </mxCell>
        <mxCell id="vMz3USnpQMWJAtwqPLA3-21" style="edgeStyle=orthogonalEdgeStyle;rounded=0;orthogonalLoop=1;jettySize=auto;html=1;exitX=1;exitY=0.5;exitDx=0;exitDy=0;entryX=0.5;entryY=0;entryDx=0;entryDy=0;" edge="1" parent="aWlaW6ESdy03ouFaPt-Z-1" source="aWlaW6ESdy03ouFaPt-Z-4" target="vMz3USnpQMWJAtwqPLA3-12">
          <mxGeometry relative="1" as="geometry" />
        </mxCell>
        <mxCell id="aWlaW6ESdy03ouFaPt-Z-4" value="" style="rhombus;whiteSpace=wrap;html=1;" vertex="1" parent="aWlaW6ESdy03ouFaPt-Z-1">
          <mxGeometry x="273.75" y="160" width="207.5" height="110" as="geometry" />
        </mxCell>
        <mxCell id="aWlaW6ESdy03ouFaPt-Z-5" value="&lt;font style=&quot;&quot;&gt;&lt;font style=&quot;font-size: 12px;&quot;&gt;*(array+i)+*(array+i+1)==*(array+i+2)+*(array+i+3);&lt;/font&gt;&lt;br&gt;&lt;/font&gt;" style="text;html=1;strokeColor=none;fillColor=none;align=center;verticalAlign=middle;whiteSpace=wrap;rounded=0;" vertex="1" parent="aWlaW6ESdy03ouFaPt-Z-1">
          <mxGeometry x="296.25" y="193.75" width="170" height="42.5" as="geometry" />
        </mxCell>
        <mxCell id="aWlaW6ESdy03ouFaPt-Z-13" value="&lt;font style=&quot;font-size: 21px;&quot;&gt;Start&lt;/font&gt;" style="text;html=1;strokeColor=none;fillColor=none;align=center;verticalAlign=middle;whiteSpace=wrap;rounded=0;" vertex="1" parent="aWlaW6ESdy03ouFaPt-Z-1">
          <mxGeometry x="345" y="-105" width="60" height="30" as="geometry" />
        </mxCell>
        <mxCell id="aWlaW6ESdy03ouFaPt-Z-19" value="&lt;font style=&quot;font-size: 16px;&quot;&gt;Yes&lt;/font&gt;" style="text;html=1;strokeColor=none;fillColor=none;align=center;verticalAlign=middle;whiteSpace=wrap;rounded=0;" vertex="1" parent="aWlaW6ESdy03ouFaPt-Z-1">
          <mxGeometry x="232.5" y="185" width="60" height="30" as="geometry" />
        </mxCell>
        <mxCell id="aWlaW6ESdy03ouFaPt-Z-20" value="&lt;font style=&quot;font-size: 16px;&quot;&gt;No&lt;/font&gt;" style="text;html=1;strokeColor=none;fillColor=none;align=center;verticalAlign=middle;whiteSpace=wrap;rounded=0;" vertex="1" parent="aWlaW6ESdy03ouFaPt-Z-1">
          <mxGeometry x="466.25" y="185" width="60" height="30" as="geometry" />
        </mxCell>
        <mxCell id="vMz3USnpQMWJAtwqPLA3-17" style="edgeStyle=orthogonalEdgeStyle;rounded=0;orthogonalLoop=1;jettySize=auto;html=1;exitX=0.5;exitY=1;exitDx=0;exitDy=0;entryX=0.5;entryY=0;entryDx=0;entryDy=0;" edge="1" parent="aWlaW6ESdy03ouFaPt-Z-1" source="vMz3USnpQMWJAtwqPLA3-0" target="vMz3USnpQMWJAtwqPLA3-2">
          <mxGeometry relative="1" as="geometry" />
        </mxCell>
        <mxCell id="vMz3USnpQMWJAtwqPLA3-0" value="" style="rounded=0;whiteSpace=wrap;html=1;" vertex="1" parent="aWlaW6ESdy03ouFaPt-Z-1">
          <mxGeometry x="328.75" y="-30" width="97.5" height="40" as="geometry" />
        </mxCell>
        <mxCell id="vMz3USnpQMWJAtwqPLA3-1" value="i = 0;" style="text;html=1;strokeColor=none;fillColor=none;align=center;verticalAlign=middle;whiteSpace=wrap;rounded=0;" vertex="1" parent="aWlaW6ESdy03ouFaPt-Z-1">
          <mxGeometry x="351.25" y="-25" width="60" height="30" as="geometry" />
        </mxCell>
        <mxCell id="vMz3USnpQMWJAtwqPLA3-18" style="edgeStyle=orthogonalEdgeStyle;rounded=0;orthogonalLoop=1;jettySize=auto;html=1;exitX=0.5;exitY=1;exitDx=0;exitDy=0;entryX=0.5;entryY=0;entryDx=0;entryDy=0;" edge="1" parent="aWlaW6ESdy03ouFaPt-Z-1" source="vMz3USnpQMWJAtwqPLA3-2" target="aWlaW6ESdy03ouFaPt-Z-4">
          <mxGeometry relative="1" as="geometry" />
        </mxCell>
        <mxCell id="vMz3USnpQMWJAtwqPLA3-29" style="edgeStyle=orthogonalEdgeStyle;rounded=0;orthogonalLoop=1;jettySize=auto;html=1;exitX=0.25;exitY=1;exitDx=0;exitDy=0;entryX=1;entryY=0.5;entryDx=0;entryDy=0;" edge="1" parent="aWlaW6ESdy03ouFaPt-Z-1" source="vMz3USnpQMWJAtwqPLA3-30" target="vMz3USnpQMWJAtwqPLA3-9">
          <mxGeometry relative="1" as="geometry">
            <Array as="points">
              <mxPoint x="590" y="70" />
              <mxPoint x="590" y="480" />
            </Array>
          </mxGeometry>
        </mxCell>
        <mxCell id="vMz3USnpQMWJAtwqPLA3-2" value="" style="rhombus;whiteSpace=wrap;html=1;" vertex="1" parent="aWlaW6ESdy03ouFaPt-Z-1">
          <mxGeometry x="312.5" y="30" width="130" height="80" as="geometry" />
        </mxCell>
        <mxCell id="vMz3USnpQMWJAtwqPLA3-3" value="&lt;font style=&quot;font-size: 15px;&quot;&gt;i &amp;lt; n - 3&lt;br&gt;&lt;/font&gt;" style="text;html=1;strokeColor=none;fillColor=none;align=center;verticalAlign=middle;whiteSpace=wrap;rounded=0;" vertex="1" parent="aWlaW6ESdy03ouFaPt-Z-1">
          <mxGeometry x="347.5" y="52.5" width="60" height="35" as="geometry" />
        </mxCell>
        <mxCell id="vMz3USnpQMWJAtwqPLA3-26" style="edgeStyle=orthogonalEdgeStyle;rounded=0;orthogonalLoop=1;jettySize=auto;html=1;exitX=0.5;exitY=1;exitDx=0;exitDy=0;entryX=0.5;entryY=0;entryDx=0;entryDy=0;" edge="1" parent="aWlaW6ESdy03ouFaPt-Z-1" source="vMz3USnpQMWJAtwqPLA3-4" target="vMz3USnpQMWJAtwqPLA3-24">
          <mxGeometry relative="1" as="geometry">
            <Array as="points">
              <mxPoint x="244" y="370" />
              <mxPoint x="381" y="370" />
            </Array>
          </mxGeometry>
        </mxCell>
        <mxCell id="vMz3USnpQMWJAtwqPLA3-4" value="" style="rounded=0;whiteSpace=wrap;html=1;" vertex="1" parent="aWlaW6ESdy03ouFaPt-Z-1">
          <mxGeometry x="195" y="320" width="97.5" height="40" as="geometry" />
        </mxCell>
        <mxCell id="vMz3USnpQMWJAtwqPLA3-5" value="status = 1;" style="text;html=1;strokeColor=none;fillColor=none;align=center;verticalAlign=middle;whiteSpace=wrap;rounded=0;" vertex="1" parent="aWlaW6ESdy03ouFaPt-Z-1">
          <mxGeometry x="211.25" y="325" width="60" height="30" as="geometry" />
        </mxCell>
        <mxCell id="vMz3USnpQMWJAtwqPLA3-32" style="edgeStyle=orthogonalEdgeStyle;rounded=0;orthogonalLoop=1;jettySize=auto;html=1;exitX=0.5;exitY=1;exitDx=0;exitDy=0;entryX=0.5;entryY=0;entryDx=0;entryDy=0;" edge="1" parent="aWlaW6ESdy03ouFaPt-Z-1" source="vMz3USnpQMWJAtwqPLA3-8" target="vMz3USnpQMWJAtwqPLA3-14">
          <mxGeometry relative="1" as="geometry" />
        </mxCell>
        <mxCell id="vMz3USnpQMWJAtwqPLA3-8" value="" style="ellipse;whiteSpace=wrap;html=1;" vertex="1" parent="aWlaW6ESdy03ouFaPt-Z-1">
          <mxGeometry x="320" y="450" width="120" height="60" as="geometry" />
        </mxCell>
        <mxCell id="vMz3USnpQMWJAtwqPLA3-9" value="&lt;font style=&quot;font-size: 15px;&quot;&gt;return status;&lt;/font&gt;" style="text;html=1;strokeColor=none;fillColor=none;align=center;verticalAlign=middle;whiteSpace=wrap;rounded=0;" vertex="1" parent="aWlaW6ESdy03ouFaPt-Z-1">
          <mxGeometry x="332.5" y="465" width="100" height="30" as="geometry" />
        </mxCell>
        <mxCell id="vMz3USnpQMWJAtwqPLA3-27" style="edgeStyle=orthogonalEdgeStyle;rounded=0;orthogonalLoop=1;jettySize=auto;html=1;exitX=0.5;exitY=1;exitDx=0;exitDy=0;entryX=0.5;entryY=0;entryDx=0;entryDy=0;" edge="1" parent="aWlaW6ESdy03ouFaPt-Z-1" source="vMz3USnpQMWJAtwqPLA3-12" target="vMz3USnpQMWJAtwqPLA3-24">
          <mxGeometry relative="1" as="geometry">
            <Array as="points">
              <mxPoint x="511" y="370" />
              <mxPoint x="381" y="370" />
            </Array>
          </mxGeometry>
        </mxCell>
        <mxCell id="vMz3USnpQMWJAtwqPLA3-12" value="" style="rounded=0;whiteSpace=wrap;html=1;" vertex="1" parent="aWlaW6ESdy03ouFaPt-Z-1">
          <mxGeometry x="462.5" y="320" width="97.5" height="40" as="geometry" />
        </mxCell>
        <mxCell id="vMz3USnpQMWJAtwqPLA3-13" value="status = 0;" style="text;html=1;strokeColor=none;fillColor=none;align=center;verticalAlign=middle;whiteSpace=wrap;rounded=0;" vertex="1" parent="aWlaW6ESdy03ouFaPt-Z-1">
          <mxGeometry x="478.75" y="325" width="60" height="30" as="geometry" />
        </mxCell>
        <mxCell id="vMz3USnpQMWJAtwqPLA3-14" value="" style="ellipse;whiteSpace=wrap;html=1;" vertex="1" parent="aWlaW6ESdy03ouFaPt-Z-1">
          <mxGeometry x="317.5" y="530" width="127.5" height="65" as="geometry" />
        </mxCell>
        <mxCell id="vMz3USnpQMWJAtwqPLA3-15" value="&lt;font style=&quot;font-size: 21px;&quot;&gt;Stop&lt;/font&gt;" style="text;html=1;strokeColor=none;fillColor=none;align=center;verticalAlign=middle;whiteSpace=wrap;rounded=0;" vertex="1" parent="aWlaW6ESdy03ouFaPt-Z-1">
          <mxGeometry x="351.25" y="547.5" width="60" height="30" as="geometry" />
        </mxCell>
        <mxCell id="vMz3USnpQMWJAtwqPLA3-22" value="&lt;font style=&quot;font-size: 16px;&quot;&gt;Yes&lt;/font&gt;" style="text;html=1;strokeColor=none;fillColor=none;align=center;verticalAlign=middle;whiteSpace=wrap;rounded=0;" vertex="1" parent="aWlaW6ESdy03ouFaPt-Z-1">
          <mxGeometry x="332.5" y="120" width="60" height="30" as="geometry" />
        </mxCell>
        <mxCell id="vMz3USnpQMWJAtwqPLA3-28" style="edgeStyle=orthogonalEdgeStyle;rounded=0;orthogonalLoop=1;jettySize=auto;html=1;exitX=0;exitY=0.5;exitDx=0;exitDy=0;" edge="1" parent="aWlaW6ESdy03ouFaPt-Z-1" source="vMz3USnpQMWJAtwqPLA3-24">
          <mxGeometry relative="1" as="geometry">
            <mxPoint x="380" y="20" as="targetPoint" />
            <Array as="points">
              <mxPoint x="180" y="400" />
              <mxPoint x="180" y="20" />
            </Array>
          </mxGeometry>
        </mxCell>
        <mxCell id="vMz3USnpQMWJAtwqPLA3-24" value="" style="rounded=0;whiteSpace=wrap;html=1;" vertex="1" parent="aWlaW6ESdy03ouFaPt-Z-1">
          <mxGeometry x="332.5" y="380" width="97.5" height="40" as="geometry" />
        </mxCell>
        <mxCell id="vMz3USnpQMWJAtwqPLA3-25" value="i+=2;" style="text;html=1;strokeColor=none;fillColor=none;align=center;verticalAlign=middle;whiteSpace=wrap;rounded=0;" vertex="1" parent="aWlaW6ESdy03ouFaPt-Z-1">
          <mxGeometry x="348.75" y="385" width="60" height="30" as="geometry" />
        </mxCell>
        <mxCell id="vMz3USnpQMWJAtwqPLA3-30" value="&lt;font style=&quot;font-size: 16px;&quot;&gt;No&lt;/font&gt;" style="text;html=1;strokeColor=none;fillColor=none;align=center;verticalAlign=middle;whiteSpace=wrap;rounded=0;" vertex="1" parent="aWlaW6ESdy03ouFaPt-Z-1">
          <mxGeometry x="426.25" y="40" width="60" height="30" as="geometry" />
        </mxCell>
      </root>
    </mxGraphModel>
  </diagram>
  <diagram name="dividemerge" id="Ia8MVXuw_RrQLIumJNgJ">
    <mxGraphModel dx="522" dy="537" grid="1" gridSize="10" guides="1" tooltips="1" connect="1" arrows="1" fold="1" page="1" pageScale="1" pageWidth="827" pageHeight="1169" math="0" shadow="0">
      <root>
        <mxCell id="0OCAQqexcg4JIx0be7SN-0" />
        <mxCell id="0OCAQqexcg4JIx0be7SN-1" parent="0OCAQqexcg4JIx0be7SN-0" />
        <mxCell id="0OCAQqexcg4JIx0be7SN-2" value="" style="ellipse;whiteSpace=wrap;html=1;" vertex="1" parent="0OCAQqexcg4JIx0be7SN-1">
          <mxGeometry x="315" y="70" width="125" height="60" as="geometry" />
        </mxCell>
        <mxCell id="0OCAQqexcg4JIx0be7SN-3" value="" style="ellipse;whiteSpace=wrap;html=1;" vertex="1" parent="0OCAQqexcg4JIx0be7SN-1">
          <mxGeometry x="313.75" y="420" width="127.5" height="65" as="geometry" />
        </mxCell>
        <mxCell id="UMNFtEn9qeY1LNTAniCI-2" style="edgeStyle=orthogonalEdgeStyle;rounded=0;orthogonalLoop=1;jettySize=auto;html=1;exitX=0.5;exitY=1;exitDx=0;exitDy=0;entryX=0.5;entryY=0;entryDx=0;entryDy=0;" edge="1" parent="0OCAQqexcg4JIx0be7SN-1" source="0OCAQqexcg4JIx0be7SN-4" target="UMNFtEn9qeY1LNTAniCI-0">
          <mxGeometry relative="1" as="geometry" />
        </mxCell>
        <mxCell id="0OCAQqexcg4JIx0be7SN-4" value="" style="rhombus;whiteSpace=wrap;html=1;" vertex="1" parent="0OCAQqexcg4JIx0be7SN-1">
          <mxGeometry x="312.5" y="180" width="130" height="80" as="geometry" />
        </mxCell>
        <mxCell id="0OCAQqexcg4JIx0be7SN-5" value="&lt;font style=&quot;font-size: 15px;&quot;&gt;a &amp;lt; b&lt;br&gt;&lt;/font&gt;" style="text;html=1;strokeColor=none;fillColor=none;align=center;verticalAlign=middle;whiteSpace=wrap;rounded=0;" vertex="1" parent="0OCAQqexcg4JIx0be7SN-1">
          <mxGeometry x="347.5" y="202.5" width="60" height="35" as="geometry" />
        </mxCell>
        <mxCell id="0OCAQqexcg4JIx0be7SN-7" value="" style="endArrow=none;html=1;rounded=0;" edge="1" parent="0OCAQqexcg4JIx0be7SN-1">
          <mxGeometry width="50" height="50" relative="1" as="geometry">
            <mxPoint x="510" y="220" as="sourcePoint" />
            <mxPoint x="440" y="219.5" as="targetPoint" />
          </mxGeometry>
        </mxCell>
        <mxCell id="0OCAQqexcg4JIx0be7SN-9" value="" style="endArrow=classic;html=1;rounded=0;entryX=1;entryY=0.5;entryDx=0;entryDy=0;" edge="1" parent="0OCAQqexcg4JIx0be7SN-1" target="0OCAQqexcg4JIx0be7SN-3">
          <mxGeometry width="50" height="50" relative="1" as="geometry">
            <mxPoint x="510" y="220" as="sourcePoint" />
            <mxPoint x="510" y="310" as="targetPoint" />
            <Array as="points">
              <mxPoint x="510" y="453" />
            </Array>
          </mxGeometry>
        </mxCell>
        <mxCell id="0OCAQqexcg4JIx0be7SN-13" value="&lt;font style=&quot;font-size: 21px;&quot;&gt;Start&lt;/font&gt;" style="text;html=1;strokeColor=none;fillColor=none;align=center;verticalAlign=middle;whiteSpace=wrap;rounded=0;" vertex="1" parent="0OCAQqexcg4JIx0be7SN-1">
          <mxGeometry x="347.5" y="85" width="60" height="30" as="geometry" />
        </mxCell>
        <mxCell id="0OCAQqexcg4JIx0be7SN-14" value="&lt;font style=&quot;font-size: 21px;&quot;&gt;Stop&lt;/font&gt;" style="text;html=1;strokeColor=none;fillColor=none;align=center;verticalAlign=middle;whiteSpace=wrap;rounded=0;" vertex="1" parent="0OCAQqexcg4JIx0be7SN-1">
          <mxGeometry x="347.5" y="437.5" width="60" height="30" as="geometry" />
        </mxCell>
        <mxCell id="0OCAQqexcg4JIx0be7SN-15" value="" style="endArrow=classic;html=1;rounded=0;exitX=0.5;exitY=1;exitDx=0;exitDy=0;entryX=0.5;entryY=0;entryDx=0;entryDy=0;" edge="1" parent="0OCAQqexcg4JIx0be7SN-1" source="0OCAQqexcg4JIx0be7SN-2" target="0OCAQqexcg4JIx0be7SN-4">
          <mxGeometry width="50" height="50" relative="1" as="geometry">
            <mxPoint x="380" y="300" as="sourcePoint" />
            <mxPoint x="430" y="250" as="targetPoint" />
          </mxGeometry>
        </mxCell>
        <mxCell id="0OCAQqexcg4JIx0be7SN-19" value="&lt;font style=&quot;font-size: 16px;&quot;&gt;Yes&lt;/font&gt;" style="text;html=1;strokeColor=none;fillColor=none;align=center;verticalAlign=middle;whiteSpace=wrap;rounded=0;" vertex="1" parent="0OCAQqexcg4JIx0be7SN-1">
          <mxGeometry x="330" y="260" width="60" height="30" as="geometry" />
        </mxCell>
        <mxCell id="0OCAQqexcg4JIx0be7SN-20" value="&lt;font style=&quot;font-size: 16px;&quot;&gt;No&lt;/font&gt;" style="text;html=1;strokeColor=none;fillColor=none;align=center;verticalAlign=middle;whiteSpace=wrap;rounded=0;" vertex="1" parent="0OCAQqexcg4JIx0be7SN-1">
          <mxGeometry x="442.5" y="190" width="60" height="30" as="geometry" />
        </mxCell>
        <mxCell id="UMNFtEn9qeY1LNTAniCI-3" style="edgeStyle=orthogonalEdgeStyle;rounded=0;orthogonalLoop=1;jettySize=auto;html=1;exitX=0.5;exitY=1;exitDx=0;exitDy=0;entryX=0.5;entryY=0;entryDx=0;entryDy=0;" edge="1" parent="0OCAQqexcg4JIx0be7SN-1" source="UMNFtEn9qeY1LNTAniCI-0" target="0OCAQqexcg4JIx0be7SN-3">
          <mxGeometry relative="1" as="geometry" />
        </mxCell>
        <mxCell id="UMNFtEn9qeY1LNTAniCI-0" value="" style="rounded=0;whiteSpace=wrap;html=1;" vertex="1" parent="0OCAQqexcg4JIx0be7SN-1">
          <mxGeometry x="283.75" y="290" width="187.5" height="80" as="geometry" />
        </mxCell>
        <mxCell id="UMNFtEn9qeY1LNTAniCI-1" value="m = (a+b)/2;&lt;br&gt;dividemerge(array, a, m);&lt;br&gt;dividemerge(array, m+1, b);&lt;br&gt;mergeascend(array, a,m , b);" style="text;html=1;strokeColor=none;fillColor=none;align=center;verticalAlign=middle;whiteSpace=wrap;rounded=0;" vertex="1" parent="0OCAQqexcg4JIx0be7SN-1">
          <mxGeometry x="296.25" y="317.5" width="162.5" height="25" as="geometry" />
        </mxCell>
      </root>
    </mxGraphModel>
  </diagram>
  <diagram name="mergeascend" id="YXEN2vPq7A2cKLvl0mQM">
    <mxGraphModel dx="475" dy="488" grid="1" gridSize="10" guides="1" tooltips="1" connect="1" arrows="1" fold="1" page="1" pageScale="1" pageWidth="827" pageHeight="1169" math="0" shadow="0">
      <root>
        <mxCell id="DHsctBYsMT3uLMGR39_R-0" />
        <mxCell id="DHsctBYsMT3uLMGR39_R-1" parent="DHsctBYsMT3uLMGR39_R-0" />
        <mxCell id="DHsctBYsMT3uLMGR39_R-2" value="" style="ellipse;whiteSpace=wrap;html=1;" vertex="1" parent="DHsctBYsMT3uLMGR39_R-1">
          <mxGeometry x="159" y="70" width="125" height="60" as="geometry" />
        </mxCell>
        <mxCell id="DHsctBYsMT3uLMGR39_R-9" value="&lt;font style=&quot;font-size: 21px;&quot;&gt;Start&lt;/font&gt;" style="text;html=1;strokeColor=none;fillColor=none;align=center;verticalAlign=middle;whiteSpace=wrap;rounded=0;" vertex="1" parent="DHsctBYsMT3uLMGR39_R-1">
          <mxGeometry x="191.5" y="85" width="60" height="30" as="geometry" />
        </mxCell>
        <mxCell id="DHsctBYsMT3uLMGR39_R-11" value="" style="endArrow=classic;html=1;rounded=0;exitX=0.5;exitY=1;exitDx=0;exitDy=0;entryX=0.5;entryY=0;entryDx=0;entryDy=0;" edge="1" parent="DHsctBYsMT3uLMGR39_R-1" source="DHsctBYsMT3uLMGR39_R-2">
          <mxGeometry width="50" height="50" relative="1" as="geometry">
            <mxPoint x="224" y="300" as="sourcePoint" />
            <mxPoint x="221.5" y="180" as="targetPoint" />
          </mxGeometry>
        </mxCell>
        <mxCell id="3CkTzh0MrZNKJJU_UkFJ-2" style="edgeStyle=orthogonalEdgeStyle;rounded=0;orthogonalLoop=1;jettySize=auto;html=1;exitX=0.5;exitY=1;exitDx=0;exitDy=0;entryX=0.5;entryY=0;entryDx=0;entryDy=0;" edge="1" parent="DHsctBYsMT3uLMGR39_R-1" source="ww81kUoxs5eeqSfZJEVh-0" target="ww81kUoxs5eeqSfZJEVh-3">
          <mxGeometry relative="1" as="geometry" />
        </mxCell>
        <mxCell id="ww81kUoxs5eeqSfZJEVh-0" value="" style="rounded=0;whiteSpace=wrap;html=1;" vertex="1" parent="DHsctBYsMT3uLMGR39_R-1">
          <mxGeometry x="149.63" y="180" width="143.75" height="50" as="geometry" />
        </mxCell>
        <mxCell id="ww81kUoxs5eeqSfZJEVh-1" value="n1 = m - a+ 1;&lt;br&gt;n2 = b - m;" style="text;html=1;strokeColor=none;fillColor=none;align=center;verticalAlign=middle;whiteSpace=wrap;rounded=0;" vertex="1" parent="DHsctBYsMT3uLMGR39_R-1">
          <mxGeometry x="170.25" y="190" width="102.5" height="30" as="geometry" />
        </mxCell>
        <mxCell id="3CkTzh0MrZNKJJU_UkFJ-3" style="edgeStyle=orthogonalEdgeStyle;rounded=0;orthogonalLoop=1;jettySize=auto;html=1;exitX=0.5;exitY=1;exitDx=0;exitDy=0;entryX=0.5;entryY=0;entryDx=0;entryDy=0;" edge="1" parent="DHsctBYsMT3uLMGR39_R-1" source="ww81kUoxs5eeqSfZJEVh-3" target="ww81kUoxs5eeqSfZJEVh-5">
          <mxGeometry relative="1" as="geometry" />
        </mxCell>
        <mxCell id="ww81kUoxs5eeqSfZJEVh-3" value="" style="rounded=0;whiteSpace=wrap;html=1;" vertex="1" parent="DHsctBYsMT3uLMGR39_R-1">
          <mxGeometry x="149.63" y="260" width="144.37" height="50" as="geometry" />
        </mxCell>
        <mxCell id="ww81kUoxs5eeqSfZJEVh-4" value="i = 0;" style="text;html=1;strokeColor=none;fillColor=none;align=center;verticalAlign=middle;whiteSpace=wrap;rounded=0;" vertex="1" parent="DHsctBYsMT3uLMGR39_R-1">
          <mxGeometry x="191.5" y="270" width="60" height="30" as="geometry" />
        </mxCell>
        <mxCell id="3CkTzh0MrZNKJJU_UkFJ-4" style="edgeStyle=orthogonalEdgeStyle;rounded=0;orthogonalLoop=1;jettySize=auto;html=1;exitX=0.5;exitY=1;exitDx=0;exitDy=0;entryX=0.5;entryY=0;entryDx=0;entryDy=0;" edge="1" parent="DHsctBYsMT3uLMGR39_R-1" source="ww81kUoxs5eeqSfZJEVh-5" target="ww81kUoxs5eeqSfZJEVh-8">
          <mxGeometry relative="1" as="geometry" />
        </mxCell>
        <mxCell id="3CkTzh0MrZNKJJU_UkFJ-7" style="edgeStyle=orthogonalEdgeStyle;rounded=0;orthogonalLoop=1;jettySize=auto;html=1;exitX=1;exitY=0.5;exitDx=0;exitDy=0;entryX=1;entryY=0.5;entryDx=0;entryDy=0;" edge="1" parent="DHsctBYsMT3uLMGR39_R-1" source="ww81kUoxs5eeqSfZJEVh-5" target="ww81kUoxs5eeqSfZJEVh-10">
          <mxGeometry relative="1" as="geometry" />
        </mxCell>
        <mxCell id="ww81kUoxs5eeqSfZJEVh-5" value="" style="rhombus;whiteSpace=wrap;html=1;" vertex="1" parent="DHsctBYsMT3uLMGR39_R-1">
          <mxGeometry x="144.94" y="340" width="153.75" height="80" as="geometry" />
        </mxCell>
        <mxCell id="ww81kUoxs5eeqSfZJEVh-6" value="i &amp;lt; n1" style="text;html=1;strokeColor=none;fillColor=none;align=center;verticalAlign=middle;whiteSpace=wrap;rounded=0;" vertex="1" parent="DHsctBYsMT3uLMGR39_R-1">
          <mxGeometry x="191.5" y="365" width="60" height="30" as="geometry" />
        </mxCell>
        <mxCell id="3CkTzh0MrZNKJJU_UkFJ-6" style="edgeStyle=orthogonalEdgeStyle;rounded=0;orthogonalLoop=1;jettySize=auto;html=1;exitX=0;exitY=0.5;exitDx=0;exitDy=0;" edge="1" parent="DHsctBYsMT3uLMGR39_R-1" source="ww81kUoxs5eeqSfZJEVh-8">
          <mxGeometry relative="1" as="geometry">
            <mxPoint x="222" y="320" as="targetPoint" />
            <Array as="points">
              <mxPoint x="130" y="475" />
              <mxPoint x="130" y="320" />
            </Array>
          </mxGeometry>
        </mxCell>
        <mxCell id="ww81kUoxs5eeqSfZJEVh-8" value="" style="rounded=0;whiteSpace=wrap;html=1;" vertex="1" parent="DHsctBYsMT3uLMGR39_R-1">
          <mxGeometry x="149.63" y="450" width="144.37" height="50" as="geometry" />
        </mxCell>
        <mxCell id="ww81kUoxs5eeqSfZJEVh-9" value="L[i]=array[a+i];&lt;br&gt;i++;" style="text;html=1;strokeColor=none;fillColor=none;align=center;verticalAlign=middle;whiteSpace=wrap;rounded=0;" vertex="1" parent="DHsctBYsMT3uLMGR39_R-1">
          <mxGeometry x="191.5" y="460" width="60" height="30" as="geometry" />
        </mxCell>
        <mxCell id="3CkTzh0MrZNKJJU_UkFJ-9" style="edgeStyle=orthogonalEdgeStyle;rounded=0;orthogonalLoop=1;jettySize=auto;html=1;exitX=0.5;exitY=1;exitDx=0;exitDy=0;entryX=0.5;entryY=0;entryDx=0;entryDy=0;" edge="1" parent="DHsctBYsMT3uLMGR39_R-1" source="ww81kUoxs5eeqSfZJEVh-10" target="ww81kUoxs5eeqSfZJEVh-12">
          <mxGeometry relative="1" as="geometry" />
        </mxCell>
        <mxCell id="ww81kUoxs5eeqSfZJEVh-10" value="" style="rounded=0;whiteSpace=wrap;html=1;" vertex="1" parent="DHsctBYsMT3uLMGR39_R-1">
          <mxGeometry x="149.63" y="530" width="144.37" height="50" as="geometry" />
        </mxCell>
        <mxCell id="ww81kUoxs5eeqSfZJEVh-11" value="j = 0;" style="text;html=1;strokeColor=none;fillColor=none;align=center;verticalAlign=middle;whiteSpace=wrap;rounded=0;" vertex="1" parent="DHsctBYsMT3uLMGR39_R-1">
          <mxGeometry x="191.5" y="540" width="60" height="30" as="geometry" />
        </mxCell>
        <mxCell id="3CkTzh0MrZNKJJU_UkFJ-10" style="edgeStyle=orthogonalEdgeStyle;rounded=0;orthogonalLoop=1;jettySize=auto;html=1;exitX=0.5;exitY=1;exitDx=0;exitDy=0;entryX=0.5;entryY=0;entryDx=0;entryDy=0;" edge="1" parent="DHsctBYsMT3uLMGR39_R-1" source="ww81kUoxs5eeqSfZJEVh-12" target="ww81kUoxs5eeqSfZJEVh-14">
          <mxGeometry relative="1" as="geometry" />
        </mxCell>
        <mxCell id="ww81kUoxs5eeqSfZJEVh-12" value="" style="rhombus;whiteSpace=wrap;html=1;" vertex="1" parent="DHsctBYsMT3uLMGR39_R-1">
          <mxGeometry x="144.94" y="610" width="153.75" height="80" as="geometry" />
        </mxCell>
        <mxCell id="ww81kUoxs5eeqSfZJEVh-13" value="j &amp;lt; n2" style="text;html=1;strokeColor=none;fillColor=none;align=center;verticalAlign=middle;whiteSpace=wrap;rounded=0;" vertex="1" parent="DHsctBYsMT3uLMGR39_R-1">
          <mxGeometry x="191.5" y="635" width="60" height="30" as="geometry" />
        </mxCell>
        <mxCell id="3CkTzh0MrZNKJJU_UkFJ-12" style="edgeStyle=orthogonalEdgeStyle;rounded=0;orthogonalLoop=1;jettySize=auto;html=1;exitX=0;exitY=0.5;exitDx=0;exitDy=0;" edge="1" parent="DHsctBYsMT3uLMGR39_R-1" source="ww81kUoxs5eeqSfZJEVh-14">
          <mxGeometry relative="1" as="geometry">
            <mxPoint x="222" y="590" as="targetPoint" />
            <Array as="points">
              <mxPoint x="130" y="745" />
              <mxPoint x="130" y="590" />
            </Array>
          </mxGeometry>
        </mxCell>
        <mxCell id="3CkTzh0MrZNKJJU_UkFJ-13" style="edgeStyle=orthogonalEdgeStyle;rounded=0;orthogonalLoop=1;jettySize=auto;html=1;exitX=1;exitY=0.5;exitDx=0;exitDy=0;entryX=0;entryY=0.5;entryDx=0;entryDy=0;" edge="1" parent="DHsctBYsMT3uLMGR39_R-1" source="ww81kUoxs5eeqSfZJEVh-12" target="ww81kUoxs5eeqSfZJEVh-16">
          <mxGeometry relative="1" as="geometry">
            <Array as="points">
              <mxPoint x="400" y="650" />
              <mxPoint x="400" y="65" />
            </Array>
          </mxGeometry>
        </mxCell>
        <mxCell id="ww81kUoxs5eeqSfZJEVh-14" value="" style="rounded=0;whiteSpace=wrap;html=1;" vertex="1" parent="DHsctBYsMT3uLMGR39_R-1">
          <mxGeometry x="149.63" y="720" width="144.37" height="50" as="geometry" />
        </mxCell>
        <mxCell id="ww81kUoxs5eeqSfZJEVh-15" value="R[j]=array[m+1+j];&lt;br&gt;j++;" style="text;html=1;strokeColor=none;fillColor=none;align=center;verticalAlign=middle;whiteSpace=wrap;rounded=0;" vertex="1" parent="DHsctBYsMT3uLMGR39_R-1">
          <mxGeometry x="191.5" y="730" width="60" height="30" as="geometry" />
        </mxCell>
        <mxCell id="3CkTzh0MrZNKJJU_UkFJ-15" style="edgeStyle=orthogonalEdgeStyle;rounded=0;orthogonalLoop=1;jettySize=auto;html=1;exitX=0.5;exitY=1;exitDx=0;exitDy=0;entryX=0.5;entryY=0;entryDx=0;entryDy=0;" edge="1" parent="DHsctBYsMT3uLMGR39_R-1" source="ww81kUoxs5eeqSfZJEVh-16" target="ww81kUoxs5eeqSfZJEVh-18">
          <mxGeometry relative="1" as="geometry" />
        </mxCell>
        <mxCell id="ww81kUoxs5eeqSfZJEVh-16" value="" style="rounded=0;whiteSpace=wrap;html=1;" vertex="1" parent="DHsctBYsMT3uLMGR39_R-1">
          <mxGeometry x="580" y="40" width="143.75" height="50" as="geometry" />
        </mxCell>
        <mxCell id="ww81kUoxs5eeqSfZJEVh-17" value="i = 0; j=0; k=a;" style="text;html=1;strokeColor=none;fillColor=none;align=center;verticalAlign=middle;whiteSpace=wrap;rounded=0;" vertex="1" parent="DHsctBYsMT3uLMGR39_R-1">
          <mxGeometry x="600.63" y="50" width="102.5" height="30" as="geometry" />
        </mxCell>
        <mxCell id="3CkTzh0MrZNKJJU_UkFJ-16" style="edgeStyle=orthogonalEdgeStyle;rounded=0;orthogonalLoop=1;jettySize=auto;html=1;exitX=0.5;exitY=1;exitDx=0;exitDy=0;entryX=0.5;entryY=0;entryDx=0;entryDy=0;" edge="1" parent="DHsctBYsMT3uLMGR39_R-1" source="ww81kUoxs5eeqSfZJEVh-18" target="ww81kUoxs5eeqSfZJEVh-20">
          <mxGeometry relative="1" as="geometry" />
        </mxCell>
        <mxCell id="3CkTzh0MrZNKJJU_UkFJ-29" style="edgeStyle=orthogonalEdgeStyle;rounded=0;orthogonalLoop=1;jettySize=auto;html=1;exitX=0;exitY=0.5;exitDx=0;exitDy=0;entryX=0.5;entryY=0;entryDx=0;entryDy=0;" edge="1" parent="DHsctBYsMT3uLMGR39_R-1" source="ww81kUoxs5eeqSfZJEVh-18" target="ww81kUoxs5eeqSfZJEVh-30">
          <mxGeometry relative="1" as="geometry">
            <Array as="points">
              <mxPoint x="480" y="150" />
              <mxPoint x="480" y="480" />
              <mxPoint x="646" y="480" />
            </Array>
          </mxGeometry>
        </mxCell>
        <mxCell id="ww81kUoxs5eeqSfZJEVh-18" value="" style="rhombus;whiteSpace=wrap;html=1;" vertex="1" parent="DHsctBYsMT3uLMGR39_R-1">
          <mxGeometry x="570" y="110" width="153.75" height="80" as="geometry" />
        </mxCell>
        <mxCell id="ww81kUoxs5eeqSfZJEVh-19" value="i &amp;lt; n1&lt;br&gt;&amp;amp;&amp;amp;&lt;br&gt;j &amp;lt; n2" style="text;html=1;strokeColor=none;fillColor=none;align=center;verticalAlign=middle;whiteSpace=wrap;rounded=0;" vertex="1" parent="DHsctBYsMT3uLMGR39_R-1">
          <mxGeometry x="616.56" y="135" width="60" height="30" as="geometry" />
        </mxCell>
        <mxCell id="3CkTzh0MrZNKJJU_UkFJ-19" style="edgeStyle=orthogonalEdgeStyle;rounded=0;orthogonalLoop=1;jettySize=auto;html=1;exitX=0;exitY=0.5;exitDx=0;exitDy=0;entryX=0.5;entryY=0;entryDx=0;entryDy=0;" edge="1" parent="DHsctBYsMT3uLMGR39_R-1" source="ww81kUoxs5eeqSfZJEVh-20" target="ww81kUoxs5eeqSfZJEVh-22">
          <mxGeometry relative="1" as="geometry">
            <Array as="points">
              <mxPoint x="540" y="260" />
              <mxPoint x="540" y="320" />
              <mxPoint x="572" y="320" />
            </Array>
          </mxGeometry>
        </mxCell>
        <mxCell id="3CkTzh0MrZNKJJU_UkFJ-20" style="edgeStyle=orthogonalEdgeStyle;rounded=0;orthogonalLoop=1;jettySize=auto;html=1;exitX=1;exitY=0.5;exitDx=0;exitDy=0;" edge="1" parent="DHsctBYsMT3uLMGR39_R-1" source="ww81kUoxs5eeqSfZJEVh-20" target="ww81kUoxs5eeqSfZJEVh-24">
          <mxGeometry relative="1" as="geometry">
            <Array as="points">
              <mxPoint x="760" y="260" />
              <mxPoint x="760" y="320" />
              <mxPoint x="732" y="320" />
            </Array>
          </mxGeometry>
        </mxCell>
        <mxCell id="ww81kUoxs5eeqSfZJEVh-20" value="" style="rhombus;whiteSpace=wrap;html=1;" vertex="1" parent="DHsctBYsMT3uLMGR39_R-1">
          <mxGeometry x="569.68" y="220" width="153.75" height="80" as="geometry" />
        </mxCell>
        <mxCell id="ww81kUoxs5eeqSfZJEVh-21" value="L[i]&amp;lt;R[j]" style="text;html=1;strokeColor=none;fillColor=none;align=center;verticalAlign=middle;whiteSpace=wrap;rounded=0;" vertex="1" parent="DHsctBYsMT3uLMGR39_R-1">
          <mxGeometry x="616.2399999999999" y="245" width="60" height="30" as="geometry" />
        </mxCell>
        <mxCell id="3CkTzh0MrZNKJJU_UkFJ-23" style="edgeStyle=orthogonalEdgeStyle;rounded=0;orthogonalLoop=1;jettySize=auto;html=1;exitX=0.5;exitY=1;exitDx=0;exitDy=0;entryX=0.5;entryY=0;entryDx=0;entryDy=0;" edge="1" parent="DHsctBYsMT3uLMGR39_R-1" source="ww81kUoxs5eeqSfZJEVh-22" target="ww81kUoxs5eeqSfZJEVh-28">
          <mxGeometry relative="1" as="geometry" />
        </mxCell>
        <mxCell id="ww81kUoxs5eeqSfZJEVh-22" value="" style="rounded=0;whiteSpace=wrap;html=1;" vertex="1" parent="DHsctBYsMT3uLMGR39_R-1">
          <mxGeometry x="500" y="330" width="143.75" height="50" as="geometry" />
        </mxCell>
        <mxCell id="ww81kUoxs5eeqSfZJEVh-23" value="array[k]=L[i];&lt;br&gt;i++;" style="text;html=1;strokeColor=none;fillColor=none;align=center;verticalAlign=middle;whiteSpace=wrap;rounded=0;" vertex="1" parent="DHsctBYsMT3uLMGR39_R-1">
          <mxGeometry x="520.63" y="340" width="102.5" height="30" as="geometry" />
        </mxCell>
        <mxCell id="3CkTzh0MrZNKJJU_UkFJ-24" style="edgeStyle=orthogonalEdgeStyle;rounded=0;orthogonalLoop=1;jettySize=auto;html=1;exitX=0.5;exitY=1;exitDx=0;exitDy=0;entryX=0.5;entryY=0;entryDx=0;entryDy=0;" edge="1" parent="DHsctBYsMT3uLMGR39_R-1" source="ww81kUoxs5eeqSfZJEVh-24" target="ww81kUoxs5eeqSfZJEVh-28">
          <mxGeometry relative="1" as="geometry" />
        </mxCell>
        <mxCell id="ww81kUoxs5eeqSfZJEVh-24" value="" style="rounded=0;whiteSpace=wrap;html=1;" vertex="1" parent="DHsctBYsMT3uLMGR39_R-1">
          <mxGeometry x="660" y="330" width="143.75" height="50" as="geometry" />
        </mxCell>
        <mxCell id="ww81kUoxs5eeqSfZJEVh-25" value="array[k]=R[j];&lt;br&gt;j++;" style="text;html=1;strokeColor=none;fillColor=none;align=center;verticalAlign=middle;whiteSpace=wrap;rounded=0;" vertex="1" parent="DHsctBYsMT3uLMGR39_R-1">
          <mxGeometry x="680.63" y="340" width="102.5" height="30" as="geometry" />
        </mxCell>
        <mxCell id="3CkTzh0MrZNKJJU_UkFJ-27" style="edgeStyle=orthogonalEdgeStyle;rounded=0;orthogonalLoop=1;jettySize=auto;html=1;exitX=1;exitY=0.5;exitDx=0;exitDy=0;" edge="1" parent="DHsctBYsMT3uLMGR39_R-1" source="ww81kUoxs5eeqSfZJEVh-28">
          <mxGeometry relative="1" as="geometry">
            <mxPoint x="650" y="100" as="targetPoint" />
            <Array as="points">
              <mxPoint x="810" y="445" />
              <mxPoint x="810" y="100" />
            </Array>
          </mxGeometry>
        </mxCell>
        <mxCell id="ww81kUoxs5eeqSfZJEVh-28" value="" style="rounded=0;whiteSpace=wrap;html=1;" vertex="1" parent="DHsctBYsMT3uLMGR39_R-1">
          <mxGeometry x="574.36" y="420" width="143.75" height="50" as="geometry" />
        </mxCell>
        <mxCell id="ww81kUoxs5eeqSfZJEVh-29" value="k++" style="text;html=1;strokeColor=none;fillColor=none;align=center;verticalAlign=middle;whiteSpace=wrap;rounded=0;" vertex="1" parent="DHsctBYsMT3uLMGR39_R-1">
          <mxGeometry x="594.99" y="430" width="102.5" height="30" as="geometry" />
        </mxCell>
        <mxCell id="3CkTzh0MrZNKJJU_UkFJ-32" style="edgeStyle=orthogonalEdgeStyle;rounded=0;orthogonalLoop=1;jettySize=auto;html=1;exitX=0.5;exitY=1;exitDx=0;exitDy=0;entryX=0.5;entryY=0;entryDx=0;entryDy=0;" edge="1" parent="DHsctBYsMT3uLMGR39_R-1" source="ww81kUoxs5eeqSfZJEVh-30" target="ww81kUoxs5eeqSfZJEVh-32">
          <mxGeometry relative="1" as="geometry" />
        </mxCell>
        <mxCell id="3CkTzh0MrZNKJJU_UkFJ-34" style="edgeStyle=orthogonalEdgeStyle;rounded=0;orthogonalLoop=1;jettySize=auto;html=1;exitX=1;exitY=0.5;exitDx=0;exitDy=0;entryX=0.5;entryY=0;entryDx=0;entryDy=0;" edge="1" parent="DHsctBYsMT3uLMGR39_R-1" source="ww81kUoxs5eeqSfZJEVh-30" target="ww81kUoxs5eeqSfZJEVh-34">
          <mxGeometry relative="1" as="geometry">
            <Array as="points">
              <mxPoint x="743" y="530" />
              <mxPoint x="743" y="660" />
              <mxPoint x="646" y="660" />
            </Array>
          </mxGeometry>
        </mxCell>
        <mxCell id="ww81kUoxs5eeqSfZJEVh-30" value="" style="rhombus;whiteSpace=wrap;html=1;" vertex="1" parent="DHsctBYsMT3uLMGR39_R-1">
          <mxGeometry x="569.36" y="490" width="153.75" height="80" as="geometry" />
        </mxCell>
        <mxCell id="ww81kUoxs5eeqSfZJEVh-31" value="i &amp;lt; n1" style="text;html=1;strokeColor=none;fillColor=none;align=center;verticalAlign=middle;whiteSpace=wrap;rounded=0;" vertex="1" parent="DHsctBYsMT3uLMGR39_R-1">
          <mxGeometry x="615.92" y="515" width="60" height="30" as="geometry" />
        </mxCell>
        <mxCell id="LvH4vFGYenjjsqJ2kbVb-0" style="edgeStyle=orthogonalEdgeStyle;rounded=0;orthogonalLoop=1;jettySize=auto;html=1;exitX=0;exitY=0.5;exitDx=0;exitDy=0;entryX=0;entryY=0.5;entryDx=0;entryDy=0;" edge="1" parent="DHsctBYsMT3uLMGR39_R-1" source="ww81kUoxs5eeqSfZJEVh-32" target="ww81kUoxs5eeqSfZJEVh-30">
          <mxGeometry relative="1" as="geometry">
            <Array as="points">
              <mxPoint x="530" y="625" />
              <mxPoint x="530" y="530" />
            </Array>
          </mxGeometry>
        </mxCell>
        <mxCell id="ww81kUoxs5eeqSfZJEVh-32" value="" style="rounded=0;whiteSpace=wrap;html=1;" vertex="1" parent="DHsctBYsMT3uLMGR39_R-1">
          <mxGeometry x="574.05" y="600" width="144.37" height="50" as="geometry" />
        </mxCell>
        <mxCell id="ww81kUoxs5eeqSfZJEVh-33" value="array[k]=L[i];&lt;br&gt;k++;&lt;br&gt;i++;" style="text;html=1;strokeColor=none;fillColor=none;align=center;verticalAlign=middle;whiteSpace=wrap;rounded=0;" vertex="1" parent="DHsctBYsMT3uLMGR39_R-1">
          <mxGeometry x="615.92" y="610" width="60" height="30" as="geometry" />
        </mxCell>
        <mxCell id="3CkTzh0MrZNKJJU_UkFJ-36" style="edgeStyle=orthogonalEdgeStyle;rounded=0;orthogonalLoop=1;jettySize=auto;html=1;exitX=0.5;exitY=1;exitDx=0;exitDy=0;entryX=0.5;entryY=0;entryDx=0;entryDy=0;" edge="1" parent="DHsctBYsMT3uLMGR39_R-1" source="ww81kUoxs5eeqSfZJEVh-34" target="ww81kUoxs5eeqSfZJEVh-36">
          <mxGeometry relative="1" as="geometry" />
        </mxCell>
        <mxCell id="3CkTzh0MrZNKJJU_UkFJ-37" style="edgeStyle=orthogonalEdgeStyle;rounded=0;orthogonalLoop=1;jettySize=auto;html=1;exitX=0;exitY=0.5;exitDx=0;exitDy=0;entryX=0.5;entryY=0;entryDx=0;entryDy=0;" edge="1" parent="DHsctBYsMT3uLMGR39_R-1" source="ww81kUoxs5eeqSfZJEVh-34" target="3CkTzh0MrZNKJJU_UkFJ-0">
          <mxGeometry relative="1" as="geometry" />
        </mxCell>
        <mxCell id="ww81kUoxs5eeqSfZJEVh-34" value="" style="rhombus;whiteSpace=wrap;html=1;" vertex="1" parent="DHsctBYsMT3uLMGR39_R-1">
          <mxGeometry x="569.04" y="665" width="153.75" height="80" as="geometry" />
        </mxCell>
        <mxCell id="ww81kUoxs5eeqSfZJEVh-35" value="j &amp;lt; n2" style="text;html=1;strokeColor=none;fillColor=none;align=center;verticalAlign=middle;whiteSpace=wrap;rounded=0;" vertex="1" parent="DHsctBYsMT3uLMGR39_R-1">
          <mxGeometry x="615.5999999999999" y="690" width="60" height="30" as="geometry" />
        </mxCell>
        <mxCell id="LvH4vFGYenjjsqJ2kbVb-1" style="edgeStyle=orthogonalEdgeStyle;rounded=0;orthogonalLoop=1;jettySize=auto;html=1;exitX=1;exitY=0.5;exitDx=0;exitDy=0;entryX=1;entryY=0.5;entryDx=0;entryDy=0;" edge="1" parent="DHsctBYsMT3uLMGR39_R-1" source="ww81kUoxs5eeqSfZJEVh-36" target="ww81kUoxs5eeqSfZJEVh-34">
          <mxGeometry relative="1" as="geometry">
            <Array as="points">
              <mxPoint x="750" y="800" />
              <mxPoint x="750" y="705" />
            </Array>
          </mxGeometry>
        </mxCell>
        <mxCell id="ww81kUoxs5eeqSfZJEVh-36" value="" style="rounded=0;whiteSpace=wrap;html=1;" vertex="1" parent="DHsctBYsMT3uLMGR39_R-1">
          <mxGeometry x="573.7299999999999" y="775" width="144.37" height="50" as="geometry" />
        </mxCell>
        <mxCell id="ww81kUoxs5eeqSfZJEVh-37" value="array[k]=R[j];&lt;br&gt;k++;&lt;br&gt;j++;" style="text;html=1;strokeColor=none;fillColor=none;align=center;verticalAlign=middle;whiteSpace=wrap;rounded=0;" vertex="1" parent="DHsctBYsMT3uLMGR39_R-1">
          <mxGeometry x="615.5999999999999" y="785" width="60" height="30" as="geometry" />
        </mxCell>
        <mxCell id="3CkTzh0MrZNKJJU_UkFJ-0" value="" style="ellipse;whiteSpace=wrap;html=1;" vertex="1" parent="DHsctBYsMT3uLMGR39_R-1">
          <mxGeometry x="350" y="830" width="127.5" height="65" as="geometry" />
        </mxCell>
        <mxCell id="3CkTzh0MrZNKJJU_UkFJ-1" value="&lt;font style=&quot;font-size: 21px;&quot;&gt;Stop&lt;/font&gt;" style="text;html=1;strokeColor=none;fillColor=none;align=center;verticalAlign=middle;whiteSpace=wrap;rounded=0;" vertex="1" parent="DHsctBYsMT3uLMGR39_R-1">
          <mxGeometry x="390.25" y="847.5" width="60" height="30" as="geometry" />
        </mxCell>
        <mxCell id="3CkTzh0MrZNKJJU_UkFJ-5" value="&lt;font style=&quot;font-size: 15px;&quot;&gt;Yes&lt;/font&gt;" style="text;html=1;strokeColor=none;fillColor=none;align=center;verticalAlign=middle;whiteSpace=wrap;rounded=0;" vertex="1" parent="DHsctBYsMT3uLMGR39_R-1">
          <mxGeometry x="170.25" y="420" width="60" height="30" as="geometry" />
        </mxCell>
        <mxCell id="3CkTzh0MrZNKJJU_UkFJ-8" value="&lt;font style=&quot;font-size: 15px;&quot;&gt;No&lt;/font&gt;" style="text;html=1;strokeColor=none;fillColor=none;align=center;verticalAlign=middle;whiteSpace=wrap;rounded=0;" vertex="1" parent="DHsctBYsMT3uLMGR39_R-1">
          <mxGeometry x="272.75" y="350" width="60" height="30" as="geometry" />
        </mxCell>
        <mxCell id="3CkTzh0MrZNKJJU_UkFJ-11" value="&lt;font style=&quot;font-size: 15px;&quot;&gt;Yes&lt;/font&gt;" style="text;html=1;strokeColor=none;fillColor=none;align=center;verticalAlign=middle;whiteSpace=wrap;rounded=0;" vertex="1" parent="DHsctBYsMT3uLMGR39_R-1">
          <mxGeometry x="170.25" y="690" width="60" height="30" as="geometry" />
        </mxCell>
        <mxCell id="3CkTzh0MrZNKJJU_UkFJ-14" value="&lt;font style=&quot;font-size: 15px;&quot;&gt;No&lt;/font&gt;" style="text;html=1;strokeColor=none;fillColor=none;align=center;verticalAlign=middle;whiteSpace=wrap;rounded=0;" vertex="1" parent="DHsctBYsMT3uLMGR39_R-1">
          <mxGeometry x="284" y="620" width="60" height="30" as="geometry" />
        </mxCell>
        <mxCell id="3CkTzh0MrZNKJJU_UkFJ-17" value="&lt;font style=&quot;font-size: 15px;&quot;&gt;Yes&lt;/font&gt;" style="text;html=1;strokeColor=none;fillColor=none;align=center;verticalAlign=middle;whiteSpace=wrap;rounded=0;" vertex="1" parent="DHsctBYsMT3uLMGR39_R-1">
          <mxGeometry x="600" y="190" width="60" height="30" as="geometry" />
        </mxCell>
        <mxCell id="3CkTzh0MrZNKJJU_UkFJ-18" value="&lt;font style=&quot;font-size: 15px;&quot;&gt;No&lt;/font&gt;" style="text;html=1;strokeColor=none;fillColor=none;align=center;verticalAlign=middle;whiteSpace=wrap;rounded=0;" vertex="1" parent="DHsctBYsMT3uLMGR39_R-1">
          <mxGeometry x="710" y="230" width="60" height="30" as="geometry" />
        </mxCell>
        <mxCell id="3CkTzh0MrZNKJJU_UkFJ-21" value="&lt;font style=&quot;font-size: 15px;&quot;&gt;Yes&lt;/font&gt;" style="text;html=1;strokeColor=none;fillColor=none;align=center;verticalAlign=middle;whiteSpace=wrap;rounded=0;" vertex="1" parent="DHsctBYsMT3uLMGR39_R-1">
          <mxGeometry x="529" y="230" width="60" height="30" as="geometry" />
        </mxCell>
        <mxCell id="3CkTzh0MrZNKJJU_UkFJ-28" value="&lt;font style=&quot;font-size: 15px;&quot;&gt;No&lt;/font&gt;" style="text;html=1;strokeColor=none;fillColor=none;align=center;verticalAlign=middle;whiteSpace=wrap;rounded=0;" vertex="1" parent="DHsctBYsMT3uLMGR39_R-1">
          <mxGeometry x="509.04" y="120" width="60" height="30" as="geometry" />
        </mxCell>
        <mxCell id="3CkTzh0MrZNKJJU_UkFJ-30" value="&lt;font style=&quot;font-size: 15px;&quot;&gt;Yes&lt;/font&gt;" style="text;html=1;strokeColor=none;fillColor=none;align=center;verticalAlign=middle;whiteSpace=wrap;rounded=0;" vertex="1" parent="DHsctBYsMT3uLMGR39_R-1">
          <mxGeometry x="600" y="570" width="60" height="30" as="geometry" />
        </mxCell>
        <mxCell id="3CkTzh0MrZNKJJU_UkFJ-31" value="&lt;font style=&quot;font-size: 15px;&quot;&gt;No&lt;/font&gt;" style="text;html=1;strokeColor=none;fillColor=none;align=center;verticalAlign=middle;whiteSpace=wrap;rounded=0;" vertex="1" parent="DHsctBYsMT3uLMGR39_R-1">
          <mxGeometry x="701.88" y="500" width="60" height="30" as="geometry" />
        </mxCell>
        <mxCell id="3CkTzh0MrZNKJJU_UkFJ-35" value="&lt;font style=&quot;font-size: 15px;&quot;&gt;Yes&lt;/font&gt;" style="text;html=1;strokeColor=none;fillColor=none;align=center;verticalAlign=middle;whiteSpace=wrap;rounded=0;" vertex="1" parent="DHsctBYsMT3uLMGR39_R-1">
          <mxGeometry x="589" y="740" width="60" height="30" as="geometry" />
        </mxCell>
        <mxCell id="3CkTzh0MrZNKJJU_UkFJ-38" value="&lt;font style=&quot;font-size: 15px;&quot;&gt;No&lt;/font&gt;" style="text;html=1;strokeColor=none;fillColor=none;align=center;verticalAlign=middle;whiteSpace=wrap;rounded=0;" vertex="1" parent="DHsctBYsMT3uLMGR39_R-1">
          <mxGeometry x="469" y="680" width="60" height="30" as="geometry" />
        </mxCell>
      </root>
    </mxGraphModel>
  </diagram>
  <diagram id="aFrzZRbQyq4QYryzZLXI" name="Pagină-5">
    <mxGraphModel dx="1290" dy="530" grid="0" gridSize="10" guides="1" tooltips="1" connect="1" arrows="1" fold="1" page="0" pageScale="1" pageWidth="827" pageHeight="1169" math="0" shadow="0">
      <root>
        <mxCell id="0" />
        <mxCell id="1" parent="0" />
      </root>
    </mxGraphModel>
  </diagram>
</mxfile>
